<?xml version="1.0" encoding="UTF-8"?>
<svg id="Camada_1" xmlns="http://www.w3.org/2000/svg" version="1.1" viewBox="0 0 1080 1350">
  <!-- Generator: Adobe Illustrator 29.5.1, SVG Export Plug-In . SVG Version: 2.1.0 Build 141)  -->
  <defs>
    <style>
      .st0 {
        fill: #f9ebdb;
      }
    </style>
  </defs>
  <path class="st0" d="M758.5,416.01c-.7.29-1.23,1.89-1.5,1.99-.45.18-1.39-.14-2,0-1.22-7.04-9.95-2.52-14.96-4.54-6.3-2.54-17.33-15.78-22.54-20.46-13.12-11.78-26.11-10.36-41.74-4.74-4.16,1.5-.65,1.9-6.76,1.74l35-172c1.43-2.89,3.76-8.6.42-10.93-1.38-.96-12.82-3.94-14.94-4.08-3.21-.21-5.89.96-8.04.88-2.48-.1-5.52-4.01-7.27-.2l-42.83,193.22c-1.11.3-12.13-4.14-13.7-5.04-2.39-1.37-14.27-10.97-15.15-12.85-1.63-3.47-3.31-15.71-7.91-15.93-1.28-.06-8.34.71-10.03.97-1.18.18-10.04,2.25-10.54,2.46-2.08.91-9.72,10.09-12.51,12.49-1.56,1.34-4.55,2.04-5.59,3.43-2.09,2.79,2.63,9.12-4.89,11.2-3.68,1.02-5.87-5.94-8.63-7.52-7.33-4.19-12.85-.4-19.74,1.81-9.64-10.8-15.68-44.7-35.13-29.89-7.33,5.58-16.62,19.27-23.6,23.4-3.76,2.22-10.39,3.38-14.61,5.39-3.41,1.62-14.83,10.53-16.61,10.07-.97-.25-7.41-5.33-9.66-6.44-1.62-.8-6.43-3.06-7.81-3.29-4.73-.76-4.74,3.63-7.79,3.88-2.71.22-6.07-3.84-11.87-3.02-4.76.68-5.14,4.38-8.03,7.01-3.65,3.33-12.75,11.05-17.3,11.79-5.92.96-16.62-3.12-22.7-2.87-4.75.2-9.7,3.35-14.14,3.95-3.79.51-7.39-.19-11.46.54-4.76.85-9.05,5.06-11.47,5.53-2.83.54-6.5-.33-9.48.03-.55,2.85,3.21,2.69,3.84,4.65.65,2.02-.35,4.72.3,6.7.57,1.71,3.36,1.42,3.87,4.13,3.45,18.41,1.4,43.11,6.04,60.96.64,2.48,2.69,3.49,3.68,6.32,2.72,7.77,1.55,19.56,2.28,27.72.85,9.56,5.74,14.83,6.98,25.02,9.57,78.63,13.09,160.71,20.02,239.98,6.53,74.76,11.17,154.17,21.04,228.01.25,1.86-1.28,4.06,1.95,3.5-.72,2.74,1.23,17.48,2,21-2.22.68-2.02,2.61-2.08,4.47-.09,2.76,2.11,13.28,3.1,16.01,1.93,5.31,4.45,3.98,6.98,5.52.18,8.22.77,16.47,1.04,24.55.1,3.23-1.43,5.88-.96,9.86,2.95,25.15,39.67,29.25,58.92,32.6,66.71,11.61,141.55,9.72,208.22-2.28,4.19-.75,16.16-2.88,19.14-4.86,5.47-3.65.9-7.25,1.82-11.1.57-2.37,4.17-4.69,4.77-8.32,1.73-10.41-1.97-25.36,1.27-35.73.59-1.89,3.73-3.59,4.99-6.01,5.51-10.6,1.73-23.02,2.76-33.22.32-3.15,2.21-5.05,2.93-8.1,1.58-6.73,1.41-15.3,2.11-22.39,1.23-12.32,2.21-24.68,3.51-37.01.16-1.49,1.5-3.96-.51-4.99,1.68-3.72,3.36-19.36,3.98-24.52.51-4.27-.48-9.25.02-13.48,13.87-117.64,25.72-237.25,35-355,.3-3.83.4-12.69,1.02-15.31.19-.81,1.82-.27,2.06-2.12.34-2.61-.5-5.96-.08-8.57.98-6.08,4.5-5.47,5-16,.34-7.18.54-21.71,2-28,.24-1.02,3.03-4.71,4-8,3.2-10.83,1.94-23.68,3-35,3.18.56,1.77-1.6,1.97-3.49.42-3.97,1.87-20.18,4.08-21.96,1.02-.82,3.22-.43,3.83-2.17.56-1.6.13-5.34.12-7.38,4.7-1.25,3.49-4.81,1.5-3.99Z"/>
</svg>