<?xml version="1.0" encoding="UTF-8"?>
<svg id="Camada_1" xmlns="http://www.w3.org/2000/svg" version="1.1" viewBox="0 0 1080 1350">
  <!-- Generator: Adobe Illustrator 29.5.1, SVG Export Plug-In . SVG Version: 2.1.0 Build 141)  -->
  <path d="M779.79,350.71c-2.57-8.79-20.9-7.03-27.1-9.94-1.42-.67-1.63-2.31-2.95-3.11-4.61-2.8-7.39-4.53-13.19-3.6-3.93.63-8.6,2.63-12.88,2-.85-.13-1.13-2.8-3.6-3.63-.86-.29-7.94-1.29-8.46-1.19-2.36.45-5.97,8.4-7.12.75-2.43,1.05-7.26,3.83-9.86,2.95-2.13-.73-5.43-13.16-3.62-15.94,4.08,1.36,9.22.07,13.34.32.84.05,1.72,1.65,2.96,1.51,1.39-.16,4.72-3.28,6.46-3.61,1.88-.36,4.62,2.28,4.23-.69-21.53-15.95-47.06-14.45-72.49-12.51-32.48,2.48-64.29,9.29-97.05,9.04-32.2-.25-64.66.1-96.69-4.31-3.37-.46-7-2.24-10.38-2.62-17.24-1.93-52.54,11.9-72.01,14.78-22.07,3.26-43.37-6.34-66.26,4.74-7.95,3.85-8.82,9.8-12.55,12.45-2.56,1.82-7.29.83-10.62,4.38-4.55,4.84-.51,16.82.04,23.07,2.99,33.56,5.19,69.77,10.03,102.97,1.06,7.28,3.49,9.56,4.99,15.51,4.99,19.88,6.51,47.54,8.98,68.52,17.19,145.68,30.58,291.98,49.02,437.48.8,6.27.91,13.16,2.27,19.23.38,1.67,3.86,12.78,5.73,10.76.98-2.68-5.54-10.58,0-10.99,1.04,3.07,2.66,12.97,5.66,13.71.81.2,2.08-.75,3.33-.23,1.94.81,3.87,5.36,6.95,5.65.53.76-1.74,3.39-.51,4.92.39.48,9.74,4.12,11.37,4.71,1.14.41,2.58,0,3.23.23,46.6,16.34,96.65,18.43,146,18,23.43-.2,46.77-1.91,70-5,14.45-1.92,26.15-3.81,40-8,9.09-2.75,15.41-4.54,23.75-9.69,1.2-.74,6.02-3.5,6.29-3.76,1.38-1.38.67-3.82,1.51-5.49.64-1.27,2.13-2.18,3-4.03.54-1.14.23-3.73.49-3.97,2.17-2.04,4.91,4.42,6.95-8.05,2-12.17,2.62-24.87,5-38,.66-3.62.81-4.86,1-8,.38-6.45,1.85-12.31,2.72-18.78,18.01-133.35,36.94-270.26,54.75-404.74,1.67-12.63,3.12-25.73,5.52-38.47.02-.11.67-.41,1-2,.24-1.17-.26-2.86,0-4,1.56-6.91,4.66-11.29,5.88-17.62,5.71-29.66,9.69-65.72,13-96,.63-5.8,3.15-25.47,1.92-29.67Z"/>
</svg>