<?xml version="1.0" encoding="UTF-8"?>
<svg id="Camada_1" xmlns="http://www.w3.org/2000/svg" version="1.1" viewBox="0 0 1080 1350">
  <!-- Generator: Adobe Illustrator 29.5.1, SVG Export Plug-In . SVG Version: 2.1.0 Build 141)  -->
  <defs>
    <style>
      .st0 {
        fill: #ab0001;
      }
    </style>
  </defs>
  <path class="st0" d="M801.17,1085.32l-291.17-468.32c5.41-10.06,11.71-33.12,14.72-44.78,20.86-80.81,22.23-208.63-49.25-266.19-36.3-29.23-100.12-24.4-121.66,20.28-6.31,13.1-7.22,32.75-13.06,44.94-3.44,7.16-10.46,2.05-15.31.81-24.71-6.33-44.68-8.95-68.65,2.23-31.7,14.79-46.96,46.81-46.79,80.71,0,.67-.01,1.33,0,2,.27,14.8,7.1,33.02,14,46,1.48,2.78,1.91,1.85,2,2,.54.88,2.05,4.39,3,6,2.07,3.52.57,3.7,5,6-.39,2.34,2.6,3.34,3,4,8.86,14.64,18.14,21.32,31,32,1.07.89,2.22,1.37,3,2,6.2,5.01,11.89,10.1,19,15,36.22,24.96,66.14,42.99,110.99,53.51,19.41,4.55,50.15,10.88,69.63,11.35,4.31.1,9.19-.81,13.38-1.85,12.59,14.87,21.66,32.51,32.17,49.33,79.93,127.86,158.53,257.17,240,384,4.49,6.99,11.35,19.09,15.79,24.94.33.44,7.32,7.46,7.81,7.72,1.03.54,9.49,1.94,10.78,1.89,4.3-.17,16.57-10.38,10.61-15.55Z"/>
</svg>