<?xml version="1.0" encoding="UTF-8"?>
<svg id="Camada_1" xmlns="http://www.w3.org/2000/svg" version="1.1" viewBox="0 0 1080 1350">
  <!-- Generator: Adobe Illustrator 29.5.1, SVG Export Plug-In . SVG Version: 2.1.0 Build 141)  -->
  <defs>
    <style>
      .st0 {
        fill: #efd400;
      }
    </style>
  </defs>
  <path class="st0" d="M1043.32,702.18c-.69-2.93-2.97-7.33-4.32-10.18-.89-39.43-3.65-78.62-5-118-.09-2.55-.94-4.68-1-7-.37-13.82-.21-28.27-1.11-42.39-.32-5-1.61-10.31-.89-15.62-14.65,1-29.33,2.33-44,3-4.18.19-9.62-.98-13,1-.33,0-.67,0-1,0-10.54.1-20.94,1.03-31.49,1.01l-53.51,6.99c-7.24-.41-14.04,2.91-21,4-1.19.18-2.42.57-3.24.81l-.76.19c-.33.05-.67-.05-1,0-25.6,3.76-52.3,6.19-78,9-.33.04-.67-.04-1,0-20.19,2.21-41.03,3.8-61,6-2.11.23-4.56.72-7,1-6.17-2.55-14.07.4-20.51.99-20.31,1.87-40.71,2.72-60.98,5.02-2.55.29-6.33.72-8.51,1.99-.66.05-1.34-.04-2,0-1.01-1.6-3.85-1.15-5.48-1-49.9,4.66-99.95,9.94-149.52,14-.33.03-.67-.03-1,0-4.91.4-13.75,2-17.5,2h-15c-.34,0-1.67.95-2.96,1.04-6.91.49-14.79.13-21.54,1.96-.33,0-.67,0-1,0-28.42.44-58.02,4.8-86.51,6.99-92.39,7.09-184.68,13.23-276.98,23.02-3.16.34-9.14.51-8.56,4.44,2.02,16.88-2.89,39.77,1.31,55.79.99,3.77,5.03,9.06,5.67,13.33.74,4.85-.35,10.71.17,15.83,1.35,13.24,3.1,24.62,4.1,38.11.7,9.5,1.6,20.69,4.8,29.5,2.91,20.85,7.9,33.44,16,52,.92,2.11,2.61,5.12,4,7,.08.3-.07.68,0,1,.96,4.59,3.62,2.13,5.53,3.96,1.76,1.68,2.59,9.53,6.47,11.04.5,3.77.96,11.25,6.39,10.99,4.27-.2,22.75-7.22,27.86-9.24,11.92-4.72,21.45-10.66,33.75-14.75,4.59-1.53,10.18-2.41,15.01-4.49,6.14-2.64,5.02-4.9,13.99-5.51,20.32-1.39,43.73-.94,64-1,7.57-.02,15.14,1,23,1,37.65.02,75.48-.58,113,1,1.33.06,2.67-.06,4,0,29.84,1.28,59.72,4.83,90,4,8.69-.24,15.95-1.52,24-2,46.97-2.83,93.82-6.96,140.49-12.01,2.03-.22,9.06-1.01,9.51-1.99,6.28.18,16.67-1.43,22.28-4.22,4.21-2.09,8.79-10.33,13.47-11.53,6.47-1.66,16.67.17,23.26-2.24.33,0,.67,0,1,0,5.42.02,10-.78,15-1,7.34-.32,14.67-.59,22-1,30.7-1.72,61.38-4.25,92-6,3.97-.23,8.03.23,12,0,2.9-.16,6.04-.88,8-1,5.99-.36,12.09-.64,18-1,4.6-.28,9.71-.77,14-1,.33-.02.67.02,1,0,4.49-.25,10.16,1.03,14-1,34.01-1.06,68.29-2.95,102.49-5.01,5.51-.33,9.2-.79,14.97-.94,4.97-.13,12.06.67,16.54-.05,3.21-.51,3.69-2.6,4-5.48,1-9.34,1.25-44.12-.68-52.33Z"/>
</svg>