<?xml version="1.0" encoding="UTF-8"?>
<svg id="Camada_1" xmlns="http://www.w3.org/2000/svg" version="1.1" viewBox="0 0 1080 1350">
  <!-- Generator: Adobe Illustrator 29.5.1, SVG Export Plug-In . SVG Version: 2.1.0 Build 141)  -->
  <defs>
    <style>
      .st0 {
        fill: #b1bd02;
      }
    </style>
  </defs>
  <path class="st0" d="M794.73,333.83c-2.54-.74-12.67-10.5-17.06-12.99-5.28-2.99-11.46-5.36-17.43-6.57-2.39-.48-16.31-2.52-17.74-2.33-2.5.34-1.79,3.46-6.07,3.99-1.78.22-14.23-.53-15.74-.9-.91-.22-1.38-2.53-2.69-3.52-1.78-1.34-4.67-1.26-5.01-1.51-.9-.66-.43-2.58-5.03-4.47-9.92-4.09-56.51-18.56-65.47-18.6-5.15-.02-10.95,3.19-16.5,2.07-4.95-1.45-10.03-2.65-15-4l-.67-.22c-.62-.23-1.39-.53-2.33-.78-.31-.08-.69.08-1,0-.11-.03-.54-.66-2-1-.32-.07-.68.07-1,0-2.27-2.33-9.75-5.49-12.77-5.83-2.31-.26-3.89.96-6.23.42-13.37-3.13-18.79-17.78-30.78-21.31-18.26-5.37-32.59,3.99-49.19,8.25-3.51.9-20.15,4.69-22.51,4.47-6.09-.56-11.02-24.5-26.27-18.24-7.15,2.94-13.28,10.14-19.33,14.66-8.62,6.44-19.69,10.21-26.35,18.65-1.02,1.29-3.18,6.38-3.77,6.72-3.51,2.04-20.91-1.86-25.8,1.21-3.74.12-6.41.53-10,1-5.62.73-10.13,1.94-15.56,2.98-1.84.35-4.01-1.18-3.44,2.02-.33.05-.69-.07-1,0-4.99,1.16-6.4,1.65-10.02,5.52-.74.79-.71,2.54-1.31,3.14-1.26,1.28-7.97,7.09-9.2,7.32-5.71,1.11-5.86-2.34-8.98-2.97-7.81-1.57-21.49,7.33-25.57,1.55-2.24-3.18,1.3-5.85-4.95-4.1-8.84,2.48-9.44,12.64-13.4,15.61-2.35,1.76-10.98-2.23-5.26,4.62,2.16,2.59,13.16,7.73,13.63,8.38.47.64-1.02,4.15-.77,6.15.52,4.24,6.2,9.02,6.56,11.4.22,1.46-.99,3.44-.66,5.71,1.03,7.15,5.06,14.44,5.85,20.24,2.37,17.34.04,36.13,6.31,52.69,2.44,6.45,8.73,12.9,9.69,19.31,3,20.08,3.17,40.77,5.1,60.9,13.36,139.65,26.04,279.37,38.98,419.02,1.64,17.71,1.55,37.53,4.12,54.88,1.96,13.23,6.63,15.71,11.07,25.93,1.05,2.42,5.28,24.43,5.71,28.29,1.41,12.72-3.43,23.94,11.11,31.39,10.44,8.2,39.38,15.99,52.8,18.7,43.11,8.72,91.79,9.66,135.75,7.34,27.03-1.43,92.88-9.51,109.45-32.55,6-8.34,2.88-13.34,4.06-21.94.98-7.14,1.94-7.73,1.95-16.07.02-12.2,2.48-10.74,6.99-20.49,9.24-19.96,8.08-54.54,10-77,.03-.33-.03-.67,0-1,.48-5.61,1.48-11.86,2-18,.58-6.76,1.23-13.25,2-20,.44-3.82,1.12-6.53,1-11,0-.33,0-.67,0-1,3.58-10.3,2.95-21.8,4.01-32.49,11.32-113.82,22.9-227.71,34.99-341.51.07-.65-.07-1.35,0-2,1.44-13.48,3.16-27.07,4.98-40.51.37-2.7-.42-5.98.02-8.49.28-1.59,2.88-5.51,4-7,.1-.13,1.65-.04,2.88-1.59,1.69-2.12,3.23-6.66,3.12-9.41-.01-.33.01-.67,0-1,2.83.59,1.88-1.39,2.3-3.15,4.08-17.47,3.36-36.01,6.7-53.85.06-.32-.06-.68,0-1,.01-.07.87-.2,1-1,.05-.32-.05-.67,0-1,1.5-.7.96-2.68,1-4,0-.33.01-.67,0-1,2.93-3.33,1.21-7.48,3.13-11.37.46-.93,7.61-10.84,8.17-11.32,1.62-1.36,5.01-1.62,6.15-3.36,1.05-1.59,1.06-4.88,2.68-7.33,1.61-2.45,5.6-3.5,5.85-6.63-3.21,1.05-7.93,3.79-11.26,2.83Z"/>
</svg>