<?xml version="1.0" encoding="UTF-8"?>
<svg id="Camada_1" xmlns="http://www.w3.org/2000/svg" version="1.1" viewBox="0 0 1080 1350">
  <!-- Generator: Adobe Illustrator 29.5.1, SVG Export Plug-In . SVG Version: 2.1.0 Build 141)  -->
  <defs>
    <style>
      .st0 {
        fill: #adadaf;
      }
    </style>
  </defs>
  <path class="st0" d="M949,1073c.25-17.64-.02-35.36,0-53,0-5.32,0-10.68,0-16,.01-8.98,0-18.02,0-27,0-6.32,0-12.68,0-19,0-2.33,0-4.67,0-7,0-6.99,0-14.01,0-21,0-8.32,0-16.68,0-25,0-4.99,0-10.01,0-15,0-4.99,0-10.01,0-15,0-20.32,0-40.68,0-61,0-8.65,0-17.35,0-26,0-3.32,0-6.68,0-10,0-2.66,0-5.34,0-8,0-2.99,0-6.01,0-9,0-1,0-2,0-3,0-2,0-4,0-6,0-3.66,0-7.34,0-11,0-9.99,0-20.01,0-30,0-12.98,0-26.02,0-39,0-2.99,0-6.01,0-9v-6c0-23.98,0-48.02,0-72,0-7.32,0-14.68,0-22,0-25.98,0-52.02,0-78,0-10.65,0-21.35,0-32,0-8.99,0-18.01,0-27,0-2.99,0-6.01,0-9,0-2,0-4,0-6,0-1.67,0-3.33,0-5,0-1,0-2,0-3,0-9.32,0-18.68,0-28,0-2,0-4,0-6-.01-12.65.02-25.35,0-38-.03-21.65.02-43.35,0-65.01-28.66.03-57.38.03-86.01,0-3.99,0-8.01,0-12,0-12.98-.02-26.02,0-39,0-2.99,0-6.01,0-9,0-15.32,0-30.68,0-46,0-2.66,0-5.34,0-8,0-9.65,0-19.35,0-29,0-5.65,0-11.35,0-17,0-17.98,0-36.02,0-54,0-3.99,0-8.01,0-12,0-3.99,0-8.01,0-12,0-7.65,0-15.35,0-23,0-19.62,0-39.73,0-59,0h-6c-2.33,0-4.67,0-7,0-8.65,0-17.35,0-26,0-26.32,0-52.68,0-79,0-8.32,0-16.68,0-25,0-26.32,0-52.68-.01-79,0-5.99,0-12.01,0-18,0-28.65.01-57.35-.02-86,0-4.65,0-9.35,0-14,0-23.99.03-48.02-.02-72.01,0-.03,4.99.05,10.02,0,15.01-.03,3.32.01,6.68,0,10-.07,19.98.02,40.02,0,60,0,6.65,0,13.35,0,20-.03,32.32.01,64.68,0,97,0,7.65,0,15.35,0,23-.01,30.98,0,62.02,0,93,0,10.65,0,21.35,0,32,0,27.98,0,56.02,0,84,0,5.99,0,12.01,0,18,0,23.65,0,47.35,0,71,0,.67,0,1.33,0,2,0,7.99,0,16.01,0,24,0,5.32,0,10.68,0,16,.01,32.32-.02,64.68,0,97,0,8.65,0,17.35,0,26,.01,19.29-.02,39.06,0,58,0,3.32,0,6.68,0,10,0,5.32,0,10.68,0,16,0,7.98-.04,16.02,0,24,.03,7.32-.02,14.68,0,22.01,9.65.01,19.35-.03,29.01,0,6.32.02,12.68-.02,19,0,5.99.01,12.01,0,18,0,1.67,0,3.33,0,5,0,19.98.02,40.02-.01,60,0,7.65,0,15.35,0,23,0,4.65,0,9.35,0,14,0,2.33,0,4.67,0,7,0,20.98,0,42.02,0,63,0,6.65,0,13.35,0,20,0,18.65,0,37.35,0,56,0h4c5.99,0,12.01,0,18,0,9.99,0,20.01,0,30,0,23.65,0,47.35,0,71,0,11.32,0,22.68,0,34,0,26.65,0,53.35,0,80,0,8.32,0,16.68,0,25,0,19.58,0,39.34,0,59,0,.67,0,1.33,0,2,0s1.33,0,2,0c13.98,0,28.02,0,42,0,17.98,0,36.02.01,54,0,2.66,0,5.34,0,8,0,.67,0,1.33,0,2,0,15.32-.02,30.68.04,46,0,2.66,0,5.34.01,8,0,1,0,2,0,3,0,2.33-.02,4.67.05,7,0,1.33-.03,2.67.07,4,0,1.66-.09,3.35.07,5.01,0,.03-3.66-.06-7.35,0-11.01Z"/>
</svg>