<?xml version="1.0" encoding="UTF-8"?>
<svg id="Camada_1" xmlns="http://www.w3.org/2000/svg" version="1.1" viewBox="0 0 1080 1350">
  <!-- Generator: Adobe Illustrator 29.5.1, SVG Export Plug-In . SVG Version: 2.1.0 Build 141)  -->
  <defs>
    <style>
      .st0 {
        fill: #fcc46d;
      }
    </style>
  </defs>
  <path class="st0" d="M1049.7,661.81c-.67-1.7-1.47-6.4-3.7-5.81-1.72-6.72-2.17-4.33-3.98-7.77-.95-1.81-.93-5.09-2.15-7.6-42.95-87.66-148.61-143-238.35-170.65-80.18-24.71-163.88-38.73-248.02-39.98l.5,2h-6s2.99-1.98,2.99-1.98c-2.94.74-6.02-1.04-8.57-1.09-1.86-.04-.86,1.89-2.86,2.16-7.12.97-22.32-1.29-31.11-1.12-109.16,2.13-247.45,29.22-341.26,84.94-2.63,1.56-8.65,3.03-9.2,6.1-4.36,2.13-5.39,3.06-9.24,5.32-7.73,4.52-15.91,8.26-22.76,14.68-3.05.99-10.14,7.71-13,10-1.98,1.59-2.84,2.66-4.47,4.03-1.79,1.51-5.01,1.22-5.53,4.97-1.31,1.02-2.68,1.96-4,3-8.3,6.54-16.56,16.01-24,24-50.78,54.6-73.04,119.97-45,195,1.79,4.79,2.64,7.88,5,13,12.29,26.62,28.85,47.77,48,68,2.9,3.07,5.35,6.68,9,9,5.58,5.93,10.12,10.42,17,15,2.57,3.21,5.76,4.58,9,7,2.64,3.16,1.22,2.15,5,5,.73.55,1.74.78,2,1,.39.33.66.63,1,1,45.53,49.71,139.18,82.13,204.18,98.32,113.17,28.18,226.78,31.42,342.15,14.52,114.49-16.77,207.55-58.92,297.56-130.44,43.65-34.68,77.76-78.98,87.1-135.4,7.67-24.58,2.08-62.39-7.3-86.19Z"/>
</svg>