<?xml version="1.0" encoding="UTF-8"?>
<svg id="Layer_1" data-name="Layer 1" xmlns="http://www.w3.org/2000/svg" viewBox="0 0 685.56 617.43">
  <defs>
    <style>
      .cls-1 {
        fill: #737883;
      }
    </style>
  </defs>
  <path class="cls-1" d="M580.34,398.42l-3.37-.1c0-.53-.52-.92-1.12-.67-.28.11-.5.31-.4.74l-2.1.08c-.58-.1-1.56-.26-2.18.12-.52.32-.33,1.13.15,1.32.27.11.59.27.98.06l.75,1.32c.77,1.36,1.06,2.79,1.73,3.62,1.17,1.45,3.74.29,5.13.85l7.73,3.13c1.33.54,2-2.8,1.92-4.02-.19-3.11-5.27-6.35-9.22-6.46Z"/>
  <path class="cls-1" d="M685.28,227.58c-.77-1.05-1.14-2.77-1.4-4.04,3.39-3.95.97-16.77-3.59-18.96l.06-.81c.02-.3.01-.72-.14-1.01-.25-.45-.83-.65-1.35-.6l-.09-1.14c-.25-3.1-1.47-8.45-4.09-9.64.27-4.88-3.15-8.18-5.36-11.57l-5.1-7.82c-3.08-4.72-6.1-9.11-10.23-13.04-1.14-1.09-1.49-3.24-2.85-3.74l-.2-.84c.55-3.6-2.07-4.93-5.24-6.64l-6.29-3.41c-1.44-.78-2.55-2.12-3.9-2.69l-1.63-.68c-.11-1.15-.56-2.26-1.48-2.99.52-4.24-5.15-5.91-7.03-11.74l.12-1.3c.02-.27-.12-.68-.71-.58l-.06-5.03.24-3.96c.04-.59-.23-1.12-.49-1.37-.2-.19-.63-.28-.98-.23l-.85-8.73c-.12-1.28.49-2.84-.83-3.83l-.09-2.12c-.09-2.05-.31-4.36-1.46-6.05.03-.47.21-1.2.1-1.68l-6.94-30.49.19-1.67c.25-2.14-.37-3.93-1.7-5.49-.66-.78-1.43-2.55-1.69-3.59-.26-1.08-.17-2.19-1.15-2.97l-.67-1.37c-1.56-3.22-2.99-6.35-4.88-9.72-4.32-7.72-10.42-14.83-18.23-19.58-13.49-8.21-37.68-18.83-52.29-15.95-6.24,1.23-12.23,4.33-17.15,8.03-5.16,3.87-8.19,9-11.34,14.31l-4.76,8c-1.42,2.39-4.76,3.84-4.48,7.47l-14.74,2.38c-.5-.12-1.61.43-1.98,1.02-4.56,7.27-16.79,3.99-23.05,12.04-3.63,1.58-6.15,4.65-8.31,8.32-1.47,1.61-2.5,3.88-2,5.59,1.85,1.1,3.38-1.59,4.44-1.59l17.82.03c3.39,0,5.38,1.27,7.98,2.23,6.83,2.52,12.7,5.61,18.59,10.03,1.81,1.36,6.15,1.26,6.23,5.07.04,2.12-.14,4.24,1.41,5.79,1.83,1.83,3.08,3.48,6.49,2.88.68,2.13.18,3.58-1.06,5.56,1.76.57,2.8,1.23,3.96,2.94,1.28-.74,2.22-1.82,3.84-1.88.08,2.97-1.66,4.48-2.45,6.78,3.71,3.29-2.1,9.02-.65,9.44l2.69.78c.88,1.94.17,5.51-.84,7.34-1.17,2.11.54,3.37.67,4.58.69,6.26-3.16,10.83-5.58,16.14-1.28,2.82-.55,7.5-2.28,10.21.61.74,2.17,1.12,2.38,1.61.71,1.68-7.03,4.11-5,12.33l-5.46,3.03c-1.19.66-2.07,6.3-5.48,9.59-5.72,5.52-7.58,14.21-12.92,17.34l-3.14,1.84-26.51,10.84c-9.98,4.08-26.37,8.22-32.89,15.9l-3.05,1.45c-10,2.61-19.37,6.88-27.85,13.35l-6.12,3.73c-.61.37-.59,1.13-.44,1.65l-12.74,8.21-7.56,3.54-8.27,3.25c-1.19.47-2.18.92-2.41,2.06l-2.03.1c-2.14.11-3.74,1.3-5.37,2.06l-19.4,9.12c-1.17.55-3.18.21-3.15,2.22-.15.01-.45.13-.66-.03l-9.66,6.79c-.46.32-.53,1.18-.49,1.48l-1.8.7-7.74,3.72c-.83.4-1.2.98-1.16,1.62l-2.28.71-1.08.22c-.44.09-.71.73-.68,1.26l-1.24.04c-.32.01-.72-.01-1.1.16-.43.19-.7.77-.65,1.33-1.99.35-4.18,1.98-5.7,2.94l-1.13.26c-.46.11-.65.8-.55,1.31-.23-.04-.51,0-.74.03-1.17.2-2.12,1-2.32,2.18l-.6.03c-.31.02-.73-.01-1.07.15-.45.21-.67.83-.61,1.39l-4.37,2.94c-1.81,1.22-3.92,2.3-4.57,4.48l-3.69,2.17c-.69.41-1.67.38-1.8,1.42l-22.42,16.42c-6.11,4.47-11.78,9.33-14.69,16.08-3.02.68-3.65,7.04-8.26,10.95-7.19,6.09-15.7,10.81-23.84,15.55l-15.21,1.82c-8.2,1.06-15.93,3.65-23.97,6.85l-35.31,14.07c-1.13.45-2.17,1.04-2.75,1.73-2.36.52-5.19.87-6.87,2.66l-1.38.2-11.5,2.89c-.68.17-1.1.59-1.16,1.23l-2.99-.15c-.57-.03-1.49-.22-1.65.67h-2.91c-.82,0-2.06-.3-2.28.84l-3.71.56c-.67.1-1.56.01-1.53.87l-1.39.09c-2.09.14-4.33-.71-6.2.45-.97.61-2.36.67-3.44.97-2.03-.46-4.85-.63-5.71,1.14-3.2.63-5.77,5.57-9.38,3.72l-.64-.33c-.17-.09-.58.45-.68.75-.57,1.72-1.72,1.62-2.85,1.46-3-.44-5.93,1.15-7.59,4.1-2.73-.07-4.15,1.37-5.28,3.58-1.12,2.24-3.22,4.03-4.43,6-1.6,2.62.94,5.69,1.7,8.02l2.69,8.18-7.87,6.69-13.22,11.47c-2.2,1.91.79,8,2.84,9.15,3.26,1.82,4.47-2.26,7.37-1.84l.77,2.4-5.33,3.38c-1.08.68-1.58,1.46-1.47,2.5l-.79-.06c-.29-.02-.69-.02-.93.12-.45.26-.63.81-.72,1.28l-7.08,3.77-1.12.24c-.46.1-.73.79-.68,1.32-2.2.61-4.32,3.05-5.9,4.33-.87.7-4.09.34-3.57,2.43,1.91,7.68,12.49,4.92,12.96,5.08.45.15.69,1.02.48,1.65l-3.5,1.8c-.66.34-.32,1.82.16,1.88.6.08,1.79.3,2.53.02l20.24-7.73c1.77-.68,3.39.84,4.62.83,5.62-.05,10.36-2.29,15.7-3.76l5.44.59,1.62-.74c.67-.3,1.43.66,1.33,1.48-.07.58-.35,1.44-1.39,1.71-9.25,2.4-18.02,5.49-25.84,10.55-.29.19-.79.17-1.05.22-.53.1-.7,1.2-.36,1.65.24.31,4.31.2,4.49-1.75l20.26-6.84c2.62-.88,4.57,1.32,6.67,2.14,8.41,3.24,16.78,1.25,25.24-.91,20.15-5.14,39.27-11.34,58.47-19.37,12.22-5.11,24.29-7.91,37.14-10.36l25.89-6.89,8.96-3.02c3.06-1.03,7.49-1.57,7.57-3.45l9.77.05c-.11.18-.07,1.01.2,1.19l5.38.18-1.11,4.59c6.46-.97,10.22-6.62,12.16-2.89-.24.92-3.39,2.1-2.91,3.8l2.83,1c.7.25-.22,2.65-.5,4.16,3.15-1.91,5.43-4.84,7.14-7.79.9-.33,2.43-.54,2.91-1.44.88-.4,1.81-.55,2.35.8-2.31,1.44-1.58,3.84-1.66,5.55-2.61,1.51-4.66,3.75-2.99,6.81,2.4-1.92,3.76-3.65,4.86-6.26,1.22-2.9,6.76-3.81,8.04-.82.5,1.18-.93,3.29-.09,4.16,1.16,1.2,2.12,2.05,4.26,1.22,1.63-.63,3.67,1.15,5.37,1.01.83-.07,2.08-2.13,2.89-2.02,1.15.16,1.79,1.21,2.66,2.62.7-1.36,3.48-2.53,3.96-1.58.93,2.03,1.66,2.87,3.85,3.48.85.35.22,3.08-.51,4.11,1.61.86,3.3-1.19,4.36-1.08,1.17.25,1.13,1.37,1.33,1.76,1.08,2.13,4.74-1.84,9.55-1.72l-.9,3.87c3.88-.77,5.47-7.22,10.56-8.55.02,3.27-4.5,5.76-3.63,7.3,1.79,3.19,5.05-6.51,9.42-8.13-1.57,3.77-2.5,6.4-3.25,9.84l-5.42,7.91c1.15,1.6,2.97-1.4,3.97-1.1,2.86.85-3.95,4.68-4.3,7.23-.42,3.14-1.54,5.05-4.79,6.26.73,1.61-.63,4.04-.62,5.28.03,2.76,4.36,2.99,6.05,4,2.77,1.65,5.35,3.51,8.46,1.9,1.61-.83,3.04-2.01,5.4-1.43,3.11.78,6.87,1.53,9.96.35,4.3-1.63,8.09-8.87,7.87-2.6l-.07,1.63c-1.41.44-2.23,1.86-2.05,3.8l3.88-.98-.86,4.63c1.89.23,3.47-.57,4.96-1.99,1.22-1.16,2.56.48,1.37,1.35-1.41,1.04-1.73,2.23-1.43,3.01.69,1.8,2.31,1.21,3.99,1.23l2.38.02c.42,0,.79-.6.51-1.28h.98c1.29.81,3.57-.33,4.98-.55,2.42.77,4.69,3.18,7.6,2.49,1.18-.28,2.27-2.68,4.56-1.61-1.36,3.44,2.49,7.81,5.94,7.81,1.21-.85,2.5-3.2,4.72-2.14.22,1.53,2.73,2.82,3.43,3.9l2.17,3.12c9,15.56,16.39,31.59,22.7,48.46.75,2.01,1.09,6.46-.53,7.46-2.31,1.42-5.85,1.74-8.46,1.44l-12.45-1.41c-4.01-.45-7.37,3.05-7.02,7.46.09,1.05.16,2.06.96,2.34l1.9.66c1,4.36,6.85,6.07,10.72,4.61,1.98-.74,4.68.28,6.76-1.53,2.5-2.18,5.95-3.35,9.14-2.04,2.49,2.87,5.29,5.19,8.67,5.89,1.17,2.3,3.95,3.75,6.7,4.34,3.89-.69,6.48,1.31,9.03,3.72,1.32,1.25,4.35.43,5.91.55,4.12.32,3.14-3.24,6.32-5.14,1.22-.73,2.38.27,3.75.39l12.39,1.13,2.3.1c.33.2.55.24.9-.01.36-.12,1.01-.12,1.42-.07l14.22,1.63,1.51-.12,5.29-.06h1.43s.82.07.82.07l2.15.09c1.07.91,2.96,1.08,3.87-.1l3.56-.05c3.5,1.83,11.93,1.12,13.44.25,1.3-.75.35-3.1,1.36-4.05.36-.33,1.12-.41,1.74-.25,3,2.1,6.44,3.81,10.42,3.12-.56-3.6-3.3-7.1-6.45-7.97-.19-2.15-4.89-3.43-8.46-3.29l-6.09.23c-2.47.09-5.33-.04-7.87-.91-.79-.27-.47-2.26.09-2.29l2.52-.16c6.08-3.48,18.7-6.85,22.69-3.27,4.47,4.01,9.51,5.37,15.74,4.38,1.32-.17,3.01,2.42,4.44,2.95,6.67,2.45,13.9,2.54,20.41.9.14-.03.35-.08.49-.03.24.71.9,1.31,1.67,1.28l1.6-.08c6.12.39,13.01,2.42,13.4-2.59l2.05-1c.84,1.25,1.3,2.61,3.32,3.97,2.3-4.32,6.46-4.75,10.34-3.57l12.53-.04,7.79.05c4.77.03,9.89,2.19,15.14-.59-.72-2.95-4.18-4.24-7.14-4.09-3.42.17-1.29-5.67-3.31-8.1-.83-.99-3.47-.04-4.36,1.43-3.24-1.91-6.5-2.41-9.75-.68-1.35-.94-3.35-.44-4.85-1.25l-3.95-2.12c-2.4-1.29-5.49-2.16-8.37-1.64-6.26,1.14-12.44,2.31-19.31,1.33l-16.58-2.38c-3.95-.57-6.7-2.99-9.09-6.24-1.66,1.02-1.6,2.95-.43,4.35,2.5,3.01,8,3.25,6.68,5.05-.88,1.2-3.87-.72-8.17.15-.87-.21-2.2-1.93-3.35-1.29l-.58-.61c.09-1.19-2.41-3.31-3.29-2.06-.89,1.25,1.78,3.03,2.85,2.72.22.11.37.32.42.49.52,2.1.11,5.84-2.32,7.04-4.98-5.67-8.67-4.19-7.34-8.53.15-.49-1.32-1-1.84-.55-3.22,2.75,5.06,9.17,4.79,10.06-.11.37-.74.8-1.43.46l-7.92-4c-3.52-1.78-16.68-.35-23.02,3.06-.21-2.48-1.07-3.68-3.46-3.82-.01-1.02.68-2.19,1.28-2.58,1.08-.69,2.61.21,3.59,1.29,2.08-1.86,4.72-1.61,7.57-3.34-6.17-.34-12.27-.82-18.33.16-2.69,2.19.16,8.85,4.01,9.48.71.17.03,2.64-.45,2.65-.49-.06-1-.2-1.56-.43-1.18-2.13-3.83-2.62-6.89-2.48.92-3.32,1.52-6.18.58-9.6-10.4-.2-11.13,2.93-14.45,9.63-1.51,3.04-6.06,1.76-8.15,2.32-3.58.96-5.12.11-8.04-.21-8.17-.9-21.14-1.32-21.96-6.44-.53-3.28-4.03-7.98-7.68-7.54-1.74,4.83-4.33,3.47-6.4,5.12-.47.38-.41,2.24.26,2.21,1.51-.08,2.76-.39,3.73.47.75.67,1.46,2.33.34,3.53-3.89-2.34-6.12,1.07-8.01.36-.42-.16-1.22-4.63-.71-5.79.62-1.4,2.93-1.23,4.49-3.08.79-.93.78-2.37-.39-3.17-1.33.73-1.37,1.57-2.4,2.73-5.95-8.61-8.12-15.33-2.56-11.13,1.22.92,2.99-2.01,2.49-3.1-.34-.75-.81-.96-1.09-1-.45-.06-1.36.46-1.2,2-.66-.36-1.33-1.81-1.37-2.61-.06-1.04.94-2.12,2.57-2.77l-6.17-14.67c-1.28-3.04-3.57-4.06-7.27-4.26,1.86-1.83,1.24-4.03,1.68-4.99l5.21-2.5c1.07-.52,3.41,1.66,4.36-.39.83-1.8.35-3.05.19-4.57l-.5-5.02c-.06-.61-.07-1.43.12-1.75.57-1.01,3.09-.47,4.55-1.45.66-.44.71-2.31,1.02-3.22,2.09-.33,4.45-.16,6.1-1.55,1.55-1.31,1.89-3.82,2.56-6.29,2.13.98,3.88-.19,5.78-.85,8.33-2.91,16.84-6.01,24.73-9.91l3.77.7c.56.1,1.44-2.11,2.74-2.57,2.24-.8,4.11,3.42,3.05,5.53-.28,3.23,1.03,5.76,3.97,7.31.24,4.11,2.57,7.21,3.97,10.82,2.16,5.56,4.78,10.67,9.45,14.65,10.22,8.71,19.3,18.18,27.72,28.31.47.57.78,1.31,1.5,1.68l-.03.49c-.09,1.32,1.36,2.51,2.84,3.27-.39,4.29.56,8.43,5.02,10.78,1.46-5.95-1.27-8.5-1.03-9.83.37-2.1,4.26-2.06,4.16-4.39-.08-2.02-4.45-.78-4.25-3.44l5.09-.47c1.43-.91,4.73-2.48,5.93-.68.72,1.07.8,4.83,3.48,3.95,1.82-.6-.11-3.07-1.05-4.18l-11.64-13.77-1.58-2.19c-1.02-1.41-2.28-3.12-3.56-4.07l-1.65-2.04-4.03-9.47-.02-1.61c-.06-3.87.33-7.79.84-11.97l-.79-6.07.21-2.11c.38-3.77,1.15-7.18,3.06-10.44l-.04-2.19c.29.03.77-.08.96-.27.41-.42.37-1.01.37-1.51v-2.12c1.12-.95,1.35-2.47,1.45-3.93l2.4-3.51c3.9-12.37,12.87-15.44,16.39-20.99,1.36-.06,2.3-1,2.48-2.33,2.06-.46,3.88-2.98,4.94-4.52.72-.42,2.09-.63,2.94-1.66,3.73-4.48,8.22-7.76,13.19-10.8,1.39-.85,2.6-1.71,2.97-3.12.62-.04,1.39-.71,1.93-.83l1.08-.24c.46-.1.7-.79.66-1.33,1.36-.09,2.49-1.55,3.5-2.17.26-.05.83-.1,1.1-.25.43-.24.67-.77.57-1.35l2.28-1.4c.99-.6,2.06-.98,2.13-2.29l7.45-6.15c3.4.55,5.72-.66,8.22-2.98,1.74-1.61,4.22-2.75,4.65-5.19,3.32-2.12,6.05-6.28,8.15-9.38.38-.11.7-.22.99-.4.58-.34.36-1.17.55-1.51.56-1.03,1.89-2.41,2.15-3.67,2.66-.14,4.04-1.89,5.47-3.45,2.29-2.51,3.93-5.37,5.56-8.76l9.19-19.12c6.93-11.53,12.07-23.99,17.3-36.7l2.2-5.34.19-2.23c1.58-.3,1.66-2.03,2.23-3.54l12.65-33.61-.31-1.59c1.68-3.67,1.61-7.92,2.28-12.21l.95-6.14c.16-1.04-.3-2.63.16-3.57.6-1.25.64-2.42.58-3.88l-.06-1.45c.63.03.74-.65.77-1.44l.26-6.66c.04-.92-.03-2.36-.13-3.22,1.1.07,1.64-1.04,1.7-2.49l.77-16.76,1.5-5.37c.23-.84,1.86-1.95.92-3.23ZM603.33,180.69c-.18-.21.02-.29.2-.42l-.2.42Z"/>
  <path class="cls-1" d="M470.13,388.32l4.59-.37c.37,1.02,1.03,1.88,1.58,2.1.77.3,1.67-.31,2.52-1,1.42-1.16,2.52.12,3.23.76,1.03.91,2.43.08,2.63-.83.37-1.62-3.78-2.43-7.24-5.93-3.08.38-6.19,2.82-7.31,5.27Z"/>
  <path class="cls-1" d="M343.75,305.42c-.17-1.47-1.93-4.52-3.69-3.89-1.75,2.34.17,6.15,1.05,8.65l1.61,4.63c.41,1.17,1.51,1.17,2.3,1.16,3.05-.05-.55-4.24-1.27-10.55Z"/>
  <path class="cls-1" d="M344.4,311.39c1.12-.95-.09-5.2-2-5.6-2.12-.44-1.74,2.68-1.39,3.95.25.9,1.35,2.6,3.39,1.64Z"/>
  <path class="cls-1" d="M344.53,311.45c.31-2.26-1.02-5.52-2.44-5.48-1.74.56-1.06,2.74-.42,3.79.49.79,1.62,1.71,2.86,1.69Z"/>
</svg>