<?xml version="1.0" encoding="UTF-8"?>
<svg id="Camada_1" xmlns="http://www.w3.org/2000/svg" version="1.1" viewBox="0 0 1080 1350">
  <!-- Generator: Adobe Illustrator 29.5.1, SVG Export Plug-In . SVG Version: 2.1.0 Build 141)  -->
  <defs>
    <style>
      .st0 {
        fill: #750700;
      }
    </style>
  </defs>
  <path class="st0" d="M931.5,612c-25.15-85.99-74.46-159.4-147.17-211.83-7.26-5.24-18.45-13.72-26.33-17.17-1.24-.54-2.66-.83-3-1,.02-2.5-4.21-4.25-6.08-5.42-45.79-28.71-104.18-47.24-157.92-52.58-1.8-.18-3.5-.87-5-1-95.57-8.37-170.46,11.81-252.67,58.83-127.64,73-213.47,234.73-190.04,382.38,13.97,88.03,53.27,176.32,115.71,239.79,54.22,55.12,113.5,95.04,191.79,107.71,49.66,8.04,95.92,15.91,146.42,8,21.69-3.4,46.95-10.27,67.05-19,1.51-.66,3.27-.16,2.74-2.71.32-.07.68.06,1,0,.81-.15,1.68.02,2-1,.33-.06.7.08,1,0,2.36-.59,3.12-1.21,5-2,95.09-40.16,168.91-98.33,219-190l.23-.34c.39-.53,1.07-1.31,1.77-2.66.14-.26-.13-.73,0-1,1.67-.49,2.33-.79,3.31-2.28,29.41-44.64,39.18-99.39,41.69-151.72,2.34-48.78,3.42-87.39-10.5-135Z"/>
</svg>