<?xml version="1.0" encoding="UTF-8"?>
<svg id="Camada_1" xmlns="http://www.w3.org/2000/svg" version="1.1" viewBox="0 0 1080 1350">
  <!-- Generator: Adobe Illustrator 29.5.1, SVG Export Plug-In . SVG Version: 2.1.0 Build 141)  -->
  <path d="M995,887c-.33-1.64-2.11-2.14-3-3-7.03-6.78-15.99-13.11-23-20-2.15-2.12-5.02-4.88-7-7-6.81-7.31-12.02-15.88-19.96-22.54-4.3-3.6-7.84-4.22-12.51-9.51-4.24-4.8-1.83-1.91-6.09-4.87-1.32-.92-3.68-5.9-5.44-8.08-1.85-2.29-4.01-4.83-6-7-1.86-2.03-3.36-4.78-6-6-4.05-4.94-9.44-8.59-14-13-1.04-1-1.99-2.01-3-3-10.43-10.24-19.18-21.59-31-30-.98-.69-3.63-2.06-3.76-2.24-1.54-2.17-2.4-11.13-4.65-12.85-3.64-2.78-8.43.93-11.88-.06-2.56-.74-3.18-4.72-4.72-6.85-2.74-3.79-4.79-3.21-7-5-7.66-6.23-2.59-17.51-11.28-21.68-.24-.14-.48-.25-.72-.32-5.16-7.19-10.35-9.49-15.03-14.47-2.7-2.87-4.22-9.59-6.56-13.44-2.73-4.51-7.91-9.67-11.42-14.08-8.9-11.17-18.67-21.27-27-33-1.51-2.13-2.62-4.01-4-6-5.86-8.46-12.78-15.82-19-24-4.97-6.54-3.66-2.45-6.44-11.06-1.53-4.74-16.11-17.72-20.56-20.94-1.66-1.2-1.86-3.6-5.6-4-3.75-.4-3.07,1.09-4.4,2-5.33,3.65-11.52,9.34-16,14-6.04-1.31-1.22-14.13-1-18.5v-18c0-6.81,1.67-16.72,2-24.5l1.99-18.51c.11-3.5-.05-7,.01-10.49l1.99-20.51c-.8-6.89.7-13.99,1.01-20.49.37-7.67.79-15.32,1-23,.03-1,0-2,0-3,1.89-4.49.94-10.89,1-16,.17-14.36.18-38.48,2-52,.24-1.8,1.68-2.96,1.95-4.55,2.86-16.72-25.23-24.5-36.95-28.45-49.55-16.71-104.06-19.07-156-21-37.54-1.39-72.45-1.18-110,0-47.72,1.5-99.01,3.96-144,21-9.69,3.67-30.59,11.21-32.76,22.72-.79,4.16.71,6.18.76,8.28.01.67-.02,1.33,0,2,0,.13-1.04.82-.96,2.31.27,5.19,1.38,11.43,1.96,16.69.58,24.67,2.7,49.37,4,74,.32,6.01.76,11.95,1,18,.4,9.84.86,19.65.98,29.51.02,1.69-.64,4.45,1.02,5.49.19,49.09,4.03,98.53,6.04,147.46,1.94,47.42,1.3,95.3,5.96,142.54.27,2.01.5,4.01.75,6.02-.29-2.03-.55-4.04-.75-6.02.26,14.53.43,29.02.96,43.54.92,25.09,2.3,50.25,3.04,75.46.29,10-.84,20.26,2,30,.11,2.68.62,3.15,1,5,1.31,6.38,2.55,8.51,6,14,11.26,17.93,27.9,25.71,47,33,7.05,2.69,13.73,4.93,21,7,17.7,5.05,34.6,9,53,11,2.93.64,6.89,2.47,9.57,2.93,6.78,1.17,16.9,1.8,23.89,2.11,48.76,2.11,97.16.18,144.54-11.04,3.69-.88,7.5-1.32,11.22-2.28,6.99-1.82,14.69-6.61,21.78-4.72,44.71,45.31,118.04,67.27,180,50,14.14-3.94,28.86-9.5,42-16,10.63-5.26,27.49-14.68,36.91-21.59,10.66-7.81,30.19-31.8,38.71-36.29,7.36-3.88,24.49-7.05,34.06-10.94,31.3-12.75,56.78-30.32,77.32-57.18,3-3.92,11.02-12.03,10-17ZM269.93,938.94l.06.05h-.1s.02-.04.03-.05ZM637.39,575.77c-.1.32-.18.66-.25,1.02.02-.28.04-.54.06-.78.06-.08.12-.16.19-.23ZM570.71,694.23c.91-.72,1.82-1.43,2.73-2.12-1.06.94-2.13,1.87-3.17,2.83.15-.24.3-.48.45-.71ZM393.5,558.7c.96,0,1.92,0,2.87.02-.94-.02-1.89-.02-2.85-.01,0,0-.01,0-.02,0ZM340.67,561.73c-.4.13-.8.22-1.22.25-.4.03-.79.01-1.19-.04.8-.06,1.6-.13,2.41-.22ZM562,801c1.07-.01,2.15-.01,3.23-.02-.96.08-2.02.11-3.23.02ZM360.84,917.66s-.07,0-.1.01c-1.24.07-2.49.18-3.75.33,1.29-.16,2.57-.26,3.84-.34ZM701.06,850.36c.02.15.04.33.07.55l-.13-.91.06.36ZM665.44,649.18c-.17.78-.35,1.17-.56,1.34.18-.45.37-.9.56-1.34ZM662.8,663.53c.13.37.24.74.29,1.09-.02.3-.03.59-.05.89-.06.14-.16.26-.3.36.04-.78.07-1.56.07-2.34ZM854.17,761.05c-.05-.3-.11-.59-.17-.85v-.18c.12.33.23.68.33,1.08-.05-.01-.11-.03-.16-.05ZM628,372c2.87-.9,5.84-1.61,8.87-2.22-2.95.75-5.91,1.51-8.87,2.22ZM300.02,310.99s0,0,0,0c0,0-.01,0-.02,0h.02ZM861.64,964.7s0-.02.01-.03c.91-.96,1.82-1.92,2.72-2.87.06-.03.12-.07.18-.1-.97,1-1.93,2-2.91,3Z"/>
</svg>