<?xml version="1.0" encoding="UTF-8"?>
<svg id="Camada_1" xmlns="http://www.w3.org/2000/svg" version="1.1" viewBox="0 0 1080 1350">
  <!-- Generator: Adobe Illustrator 29.5.1, SVG Export Plug-In . SVG Version: 2.1.0 Build 141)  -->
  <defs>
    <style>
      .st0 {
        fill: #ed8d66;
      }
    </style>
  </defs>
  <path class="st0" d="M925,710c-.09-3.24,1.36-7.75-2.01-8.5-.15-.92,1.45-.19,1.76-.67,1-1.59-.4-18.33-.37-21.49.06-5.71.6-11.55.62-17.33,0-.33,0-.67,0-1,.03-7.32-.01-14.68,0-22,.01-5.32,0-10.68,0-16,0-5.65,0-11.35,0-17,0-.67,0-1.33,0-2,0-4.32,0-8.68,0-13,0-1.33,0-2.67,0-4,0-4.32,0-8.68,0-13,0-1,0-2,0-3,0-10.99,0-22.01,0-33,0-5.99,0-12.01,0-18,0-2.33,0-4.67,0-7,0-9.32.01-18.68,0-28,0-1.33,0-2.67,0-4,0-1.67,0-3.33,0-5,0-.67,0-1.33,0-2,0-1.67,0-3.33,0-5-.01-8.99.02-18.01,0-27,0-3.99.01-8.01,0-12,0-3.66.01-7.34,0-11-.03-7.99.08-16.02,0-24-.06-6.31.2-12.7,0-19-.05-1.66.11-3.35,0-5-.04-.66.07-1.35,0-2-.07-.65.11-1.39,0-2-.37-4.35-.02-8.68,0-13,.04-8.98.04-18.02,0-27-.01-2.66.01-5.34,0-8,0-1,0-2,0-3-.06-8.65-.43-17.38,0-26-1.96.13-4.06-.21-6,0-3.27.34-1.04,1.7-3,2-.38-.91.58-2.53-2-2-8.67.61-17.33.07-26,0-1.33-.01-2.67,0-4,0-24.35-.16-48.7.03-73,0-1,0-2,0-3,0-2,0-4,0-6,0-.67,0-1.33,0-2,0-22.56-.02-45.33,0-68,0-4.66,0-9.34,0-14,0-2.33,0-4.67,0-7,0-3.66,0-7.34,0-11,0-53.05-.02-107.08,0-160,0h-2c-19.32,0-38.68,0-58,0-4.32,0-8.68,0-13,0-2.33,0-4.67,0-7,0-2.99,0-6.01,0-9,0-12.13.03-23.84.1-36,0-.67,0-1.33,0-2,0-5.69,0-11.35.76-17,0-1.47-.23-3.4.08-5,0-27.94-1.37-57.13.05-85,0-1,0-2,0-3,0-2,0-4,0-6,0-.67,0-1.33,0-2,0-4.18,0-8.35,0-12.5,0h-43c-3.91,0-8.32,0-12.5,0-4.66,0-9.34-.01-14,0-2.33,0-4.67,0-7,0-1,0-2,0-3,0-1.16,0-2.25-.03-3.43.05-10.82.76-23.64-.27-35.57-.05-1.64.03-3.38-.14-5,0-1.11.1-2.29-.22-3.41.09-.65.08-.45.52-.59.91-.27.75.06,2.86,0,4-.09,1.66.03,3.34,0,5-.02,1.33.01,2.67,0,4-.03,3.66.02,7.34,0,11-.02,3.33,0,6.67,0,10,0,2,0,4,0,6,0,4.32,0,8.68,0,13,0,5.69,0,11.35,0,17,0,2,0,4,0,6,0,2.98,0,5.99,0,9,0,1.67,0,3.33,0,5,0,4.32,0,8.66,0,13,0,1.67,0,3.33,0,5,0,1,0,2,0,3,0,.67,0,1.33,0,2,0,6.65,0,13.35,0,20s0,13.35,0,20c0,10.68,0,21.32,0,32,0,1,0,2,0,3,0,4.67,0,9.32,0,14,0,1.33,0,2.67,0,4,0,3.66,0,7.34,0,11,0,3.33,0,6.67,0,10,0,2.99,0,6.01,0,9,0,4.32,0,8.68,0,13,0,3.01,0,6.01,0,9,0,3.66,0,7.34,0,11,0,3.31,0,6.66,0,10,0,1.67,0,3.33,0,5,0,13.99,0,28.01,0,42v18c0,10.67,0,21.32,0,32v2c0,2,0,4,0,6,0,1.33,0,2.67,0,4,0,10.65,0,21.34,0,32,0,5.65,0,11.35,0,17,0,5.69,0,11.35,0,17,0,2,0,4,0,6,0,2.98,0,5.99,0,9,0,1.67,0,3.33,0,5,0,4.32,0,8.68,0,13,0,3.32,0,6.68,0,10,0,6.65,0,13.35,0,20,0,6.65,0,13.35,0,20,0,10.68,0,21.32,0,32,0,1.67,0,3.33,0,5,0,1,0,2,0,3,0,1.33,0,2.67,0,4,0,13.1,0,25.99,0,39,0,3.33,0,6.67,0,10,0,4,0,8.03,0,12,0,3.66,0,7.34,0,11,0,2.98,0,5.99,0,9,0,3.33,0,6.67,0,10,0,12.62-.01,25.34,0,38,0,6.65-.03,13.35,0,20,.04,10.64-.3,21.39,0,32,.07,2.33-.05,4.68,0,7.01,2.99.04,6.01-.07,9.01,0,16.3.33,32.72-.03,49,0,5.32,0,10.68,0,16,0,13.65.01,27.35,0,41,0,2.66,0,5.34,0,8,0,1.67,0,3.33,0,5,0,2.99,0,6.01,0,9,0,10.95,0,22.01.02,33,0,2,0,4,0,6,0,10.8-.02,26.5,1.35,36.57.09,2.97-.37-.15-4.1,3.85,0,19.21-.44,38.34-.12,57.57-.09.67,0,1.33,0,2,0,11.99.02,24.01,0,36,0,5.65,0,11.35,0,17,0,13.32,0,26.68,0,40,0,2.33,0,4.67,0,7,0,6.32,0,12.68,0,19,0h10c40.02,0,80.03.01,120,0,.67,0,1.33,0,2,0,12.01,0,24.02,0,36,0,5.65,0,11.35,0,17,0,13.32,0,26.68,0,40,0,2.66,0,5.34,0,8,0,44.57-.02,89.44.94,134,0,.67-.01,1.34.03,2,0,1.99-.08,4.01.07,6.01,0,.03-3.99-.06-8.02,0-12.01,0-.33,0-.67,0-1,.07-6.98-.03-14.01,0-21,.03-6.32-.01-12.68,0-19,0-.67,0-1.33,0-2,0-.67,0-1.33,0-2,0-4.32,0-8.68,0-13,0-.67,0-1.33,0-2,0-4.32,0-8.68,0-13,0-1.67,0-3.33,0-5,0-3.99,0-8.01,0-12,0-1,0-2,0-3,0-11.32,0-22.68,0-34,0-5.65,0-11.35,0-17,0-2.33,0-4.67,0-7,0-5.99,0-12.01,0-18,0-1.67,0-3.33,0-5,0-1.67,0-3.33,0-5,0-1.33,0-2.67,0-4,0-3.99,0-8.01,0-12,0-8.65,0-17.35,0-26,0-4.32,0-8.68,0-13,0-3.66,0-7.34,0-11,0-.33,0-.67,0-1,0-2,0-4,0-6,0-2.99,0-6.01,0-9,0-1.33,0-2.67,0-4,0-1.33,0-2.67,0-4,0-3.33,0-6.67,0-10,0-2,0-4,0-6,0-1.33,0-2.67,0-4,0-2.38,0-4.86,0-7,0-4.68.01-9.34,0-14-.03-9.3.25-18.7,0-28Z"/>
</svg>