<?xml version="1.0" encoding="UTF-8"?>
<svg id="Camada_1" xmlns="http://www.w3.org/2000/svg" version="1.1" viewBox="0 0 1080 1350">
  <!-- Generator: Adobe Illustrator 29.5.1, SVG Export Plug-In . SVG Version: 2.1.0 Build 141)  -->
  <path d="M767,420c.05-.66-.02-1.34,0-2,.11-4.48.89-11.7,0-16-.34-1.65-2.8-3.78-4-5-3.13-3.17-6.03-5.1-10-7-1.4-.67-2.06-1.24-4-2v-1c-.98-2.74-3.53-2.43-5.48-2.86-.18-.04-.34-.1-.52-.14-.53-.18-1.47.18-2,0-3.47-1.16-9.62-4.64-13-5-.54-.06-1.57-.11-2,0-.69-1.33-2.06-.75-3-1-1.26-.33-2.19-1.6-4.4-1.06-1.2.29-.38,1.57-.6,2.06-.93,2.05-1.68,4.15-3,6-1.9,2.66-6.11,2.87-3.47,8.98,2.28,5.28,4.99,1.26,7.03,1,6.65-.83,8.28,10.28,11.06,10.81,1.78.34,6.53-2.39,6.48-4.26-.02-.71-2.7-9.52-2.99-9.95-.67-.98-1.89-.39-2.36-.61-2.24-1.07,1.93-4.04,2.74-4.08,3.52-.15,5.94,2.68,9.51,2.1l1-1.99c1.86.72,3.33.73,4,1-.75,2.85,2.2,1.82,4,3,1.98,1.3,6.68,6.11,7.46,8.04,1.06,2.63.18,4.68.54,6.96-.22.44-.67.67-1,1-.32.32-.69.8-1,1-1.95-1.06-9.44.18-9.86-.09-.7-.47-.56-3.72-3.13-2.9.88,2.64-2.91,5.37-2.99,5.7-.68,2.88.69,3.75.98,5.29.16.9-.11,2.04,0,3-2.26-1.95-3.23.4-3,3-.28.12-.72-.12-1,0,.55-4-2.31-1.12-4-1-.99.07-2.01-.02-3,0-.99.02-2.01.04-3,0-9.2-4.06-19.19-5.31-29-7,.14-1.55.06-3.41,0-5l4-23c1.73-1.55.82-3.99,1-6,.03-.33-.04-.67,0-1,.94-5.11,1.65-10.15,2.15-15.11l31.9-224.44c.03-3.95-1.55-2.92-4.05-3.45-1.42-.3-3.03-.82-4-1-7.93-3.06-16.63-3.19-25-3.01l-2,19.01c-.06.32.05.67,0,1-1.69,1.09-.95,4.11-1,6,0,.33.02.67,0,1l-3.94,27.85c.61-2.78,1.25-5.41,1.94-7.85-1.04,4.96-2,9.93-2.94,14.91l1-7.06c-1.96,8.93-3.54,19.42-4.93,30.08-2.09,13.6-3.81,27.29-5.13,41.07-.05.33.05.67,0,1-2.23,9.02-3.49,18.47-4.83,27.67-4.24,29.05-8.58,58.21-12.17,87.33-.04.33.04.67,0,1l-.14.68c-.25,1.01-.73,2.51-.86,4.32-.02.33.01.67,0,1-1.71,1.1-.93,4.11-1,6-.01.33.02.67,0,1-2.2,3.49-1.78,8.13-2,12-.02.33,0,.67,0,1-1.68,1.09-.97,4.11-1,6,0,.33.01.67,0,1-1.27,1.98-1.54,4.01-3.81,4.1-.37-.05-.77-.08-1.19-.1-.6-.34-1.61-.63-2-1-.34-.32-1.2-2.07-2-3-.61-.71-.99-1.9-2-3-1.45-1.58-2.65-2.62-4-4-.69-.7-1.28-1.32-2-2-1.55-1.48-2.45-1.53-3-2-.57-.48-1.05-1.25-2-2-.86-.69-1.27-1.87-3-3-.29-.19-.55-.9-1-1-.44-.1-.91-.05-1.36-.01-.48.15-1.32,1.46-1.64,2.01-.78-1.96-1.52-4.08-4-4-.24-1.05-1.46-3.49-2-5-.35-.96-.54-1.82-1-3-.24-.62.06-1.76-.53-2.93-.52-1.04-1.9-1.87-2.77-2.87-.21-.39-.44-.79-.7-1.2-.07-.26,0-.67,0-1,.02-1.93,1.66-4.65,1-7,1.32.09,2.67-.03,4,0,.67.02,1.33-.01,2,0,1.12,1.78,4.12.84,6,1,1.32.12,2.68-.1,4,0l.45.09c.91.22,2.74.8,4.55.91.66.04,1.34,0,2,0,1.02,1.58,5.19,1.69,6,0,.09-.2.09-1.8,0-2-.87-1.82-8.38-.7-10.53-1.99-2.15-.21-4.34.14-6.47,0-.33-.02-.67.02-1,0-6.36-2.34-13.34-2.04-20-2h-1c-.72-.72-2.17-1.25-3-2-.89-1.53-2.81-4.14-4-6-1.38-2.17-.82-1.85-3-4-1.3-1.28-3.47-2.89-5-4-2.69-1.95-2.54-3.64-7-4v-1c-.95-1.61-4.99-1.64-6,0-.33.03-.67-.04-1,0-1.6.06-4.15-.62-5,1-1.96.37-4.49.64-6,2-5.24.44-5.65,1.92-9,3-3.45,1.11-5.31,1.24-9,3-2.8,1.34-4.45,2.47-7,4-1.45.87-2.9,2.4-4,3h-21c-3.33,0-6.67,0-10,0-3.99,0-8.01-.06-12,0-1.89.03-4.91-.68-6,1-.67.01-1.33-.01-2,0-1,.02-2-.04-3,0-3-2.62-7.88-.46-11,0-2.58.38-7.09-1.32-6.99,2.99,5.51-1.08,14.57.94,19.55.03,1.11-.2.98-.08,1.44-1.02,1,.02,2-.01,3,0,6.01.09,13.36.78,19-1,2.66.02,5.34-.09,8,0,2.05,2.08,6.18.62,9,1,.65.36,1.33.67,2,1-.03.27-.07.75,0,1-.38.23-.7.87-1,1-7.31,3.18-.07,4.65-.02,5.5l-1.98,2.5c-.42.16-.76.62-1,1-.31.08-.72-.11-1,0-1.74-.17-3.48.16-4,2-1,.33-2.01.69-3,1-3.98,1.26-8.18,2.35-12,4-1.47.27-2.98.84-4,1-2.44.39-5.94.79-8,2-5.11,1.1-5.69,4-8,7-.98,1.27-5.73,7.07-6,8-1.87-.61-2.75.49-4,1-2,.81-4.01,1.3-6,2-.3.16-.58.29-.86.4.29-.16.58-.3.86-.4-8.03,1.8-4.04-4.99-7-10,.09.71.2,2.74.33,4.94-.21-1.4-.32-3.03-.33-4.94-.04-.33.05-.67,0-1-.3-1.97-.73-3.46-1-5-.36-2.03-1.4-5.85-2-8-.79-2.81-.65-3.76-2-7-.47-1.11-.8-2.59-1-3-.31-6.42-4.16-13.49-7.14-19.41-.53-1.05-1.75-1.4-1.86-1.59-1.38-2.42-1.87-3.51-3-6-1.96-4.34-1.88-4.81-5-9-.78-1.05-1.39-2.21-2-3-3.06-6.96-9.16-12.81-14.5-18.04-.77-.76-2.28-.75-2.5-.96-2.73-2.67-5.13-5.38-8-8-1.98-1.81-4.16-4.36-6-6-4.82-4.31-6.74-5.48-12-9-.43-.29-.71-.81-1-1-1.13-.74-1.8-1.69-4-3-.52-.31-1.29-.59-2-1-1.79-4.37-7.3-4.59-10-6-1.32-.69-2.66-1.35-4-2-.38-.19-.68-.85-1-1-11.54-5.39-25.11-11.05-38-12-1.17-.09-2.9-.15-4,0-.1-.47-.54-.95-1-1-8.78-2.76-18.38-2.13-27.51-2.02-1.69.02-4.45-.64-5.49,1.02-.33.03-.67-.04-1,0-1.6.06-4.15-.62-5,1-3.87.83-7.17,3.07-10,4-3.2,1.05-5.72,1.69-9,3-5.21,2.08-11.9,3.44-16,8-1.26.66-2.14,1.54-3,2-3.28,1.77-5.04,3.08-8,5-.77.5-2.85.32-4.06,1.51-1.35,1.32.4,3.93-1.44,4.49-1.18.36.87-3.29-2.49-1-1.09.74-1.25,1.11-2,2-.47.56-1.22,1.03-2,2-1.42.86-2.89,1.73-4,3-2.53,2.9-1.96,2.85-3,6-1.98-.38-5.83,6.75-5.98,7.52-.15.79.01,1.67-.01,2.48l4.99-1.99c-2.45,4.31-3.16,9.24-4,13.99-.39,2.19.05,2.22,0,3-3.73.55-1.16,1.91-2.12,2.83-.57.54-2.75-.1-3.89.64-.69.45-2.66,5.63-4.29,7.22-.66.64-3.25,2.18-4.7,3.32-2.05,1.6-3.01,0-3,5h-1c-4.02,2.51-1.34,6.36-1.42,7.47-.08,1.21-2.51,3.33-1.58,5.53-.23.35-.79.62-1,1-2.27,3.99-1.83,7.61-3,11-.15.42-.68,1.11-1,2-.04.12-1.33.67-1.77,1.69-2.16,5.03-.11,22.89,2.56,28.02,1.13,2.17,3.14,4.02,5.2,5.3.26.4.85.7,1,1,.55,3.81.65,9.65,4,12,.21.4.86.7,1,1,2.41,5.26,3.41,8.88,5.51,13.99,1.47,3.58,3.94,6.26,5.45,9.7.29,1.06.62,2.15,1.04,3.31.31,1.37.64,2.65,1,4,.46,1.73-.08,3.73,2,5,1.74,5.32,3.02,5.96,6,10,.23,4.16,3.99,6.46,6,9,.76.96,1.53,1.44,2,2,.76.91,1.19,4.41,4,5,3.41,5.44,10.15,10.13,15,14,3.4,2.71,6.42,4.62,10,7,1.04.69,1.89,1.3,3,2,.33.21.6.76,1,1,.28.17.67,1.29,1.62,1.84,8.49,4.86,20.82,9.04,30.38,11.16.33.1.72.79,2,1,2.36.38,5.46-.21,8,0,.66.05,1.41-.11,2,0,1.06,5.11.45,10.49.96,15.58.13,1.3,1.02,2.27,1.04,2.42.9,10.34.29,20.99,3,31-.03.99-.28,2.75,1,3-2.65,4.45.55,24.87,1,31,.95,13.11,2.14,25.96,3,39,.02.33-.02.67,0,1,.36,5.14.31,11.11,2,16-.7,2.78.01,2.62,0,4-.09,8.37-.36,17.59,2,26-.03.66,0,1.33,0,2-.02,2-.04,4,0,6,.18,9.63,1.16,20.34,2,30,.77,8.86.94,19.44,3,28l4,46c-.05,1,.06,2.01,0,3-.78,13.61,2.1,35.04,3.01,49.49.23,3.62.97,9.04,1.99,12.51.4-6.66.69-9.35.89-8.1l-.89,8.1,1,14c-.11,12.13,1.86,23.25,1.98,35.51.02,1.69-.64,4.45,1.02,5.49.05,4.78.77,9.62,1,14,.12,2.33,1,5.81,1,7.5v19c0,4.3,1.63,11.69,2,16.5,1.34,17.18,4.31,34.23,4.01,51.49l2.99,35.51c.02,3.78-.84,9.02,1,12,.02-.33-.03-.67,0-1v1c-.32,4.43-.6,11.1,1,15-.03,3.98-.1,8.02,0,12,.09,3.54.92,7.5,1,10,.03,1-.04,2,0,3,.25,6.81-1.02,14.56,1,21,.43,5.17,1.67,10.98,3,16,0,.33-.03.67,0,1,.26,2.68.25,4.65,2,7v1c.32.34.42,1.14,1.04,1.48.77.42,1.49.32,1.96.52.04.35-.08.72,0,1,1.41,4.93,9.91,5.15,14,7,.66.3,1.3.68,2,1,2.3,1.04,4.6,2.61,8,4,1.63.67,3.29,1.35,5,2,11.19,4.28,28.53,8.34,38.28,13.22,2.56,1.28,3.71,4.14,6.7,5.3,10.7,4.14,33.1,6.45,45.02,7.48,8.62.74,17.33.79,26,1,6.94,1.96,14.38,2.07,21.55,2.05,29.74-.1,63.43-3.04,92.49-9.51,2.46-.55,12.58-2.71,12.97-4.53.28-1.29-.71-3.56-1-5-.06-.32.07-.68,0-1,.73-.18,2.07.41,2.82-.15.59-.45.46-2.47,2.18-3.85.28-.22,1.79.25,2,0,.91-1.11-1.98-2.85-1.84-4.32.1-1.07,1.58-2.54,1.82-4.25.79-5.62-3.33-10.85,1-16.94,3.99-5.6,18.92-3.45,25.02-7.48.33-.02.67.01,1,0,3.68-.16,7.31-.72,11-1,4.73-.35,5.08-1.37,9-2,1.11-.18,6.36-.22,6.91.09,1.21,1.25-.19,5.64.09,5.91.38.35,3.37.36,4-.99.22-.48,1.81-6.09,2-7v-1.75c.04.62.11,1.24,0,1.75,3-11.7,2.77-24.86,3-37,.01-.67,0-1.33,0-2,1.86-4.48.97-10.91,1-16,0-1.33,0-2.67,0-4,1.84-2.98.98-8.22,1-12,0-1.33-.04-2.67,0-4,1.74-6.63,1.74-14.2,2-21,.06-1.66-.07-3.34,0-5,1.95-1.57.73-5.12.96-7.54.12-1.27,1.04-2.64,1.04-2.96v-15c0-3.05.89-8.47,1-12.5.03-1,0-2,0-3,1.83-2.3.99-6.87,1-10,0-1,0-2,0-3,1.83-2.3.98-6.86,1-10,0-1,0-2,0-3,1.86-3.33.97-8.88,1-13,0-.33,0-.67,0-1,1.84-2.98.99-8.22,1-12,0-.67-.01-1.33,0-2l1.99-16.51c.13-3.16-.07-6.34.01-9.49.02-.67,0-1.33,0-2,1.85-2.98.98-8.22,1-12,0-.33,0-.67,0-1,1.85-2.98.98-8.22,1-12,0-.33,0-.67,0-1,1.85-3.33.98-8.89,1-13,0-.67,0-1.33,0-2,1.78-1.66.98-5.5,1-8,0-.67,0-1.33,0-2,1.85-4.12.99-10.25,1-15,0-1,0-2,0-3,1.08-4.65,1.63-10.69,1.99-15.51,2.44-32.73,6.52-68.02,7.01-100.49,0-.33,0-.67,0-1,1.86-3.33.97-8.88,1-13,0-.33,0-.67,0-1,1.09-3.19,1.71-8.1,1.99-11.51.62-7.43.62-15.05,1.01-22.49.05-1-.05-2,0-3,2.1-6.76,1.82-14.04,2-21,0-.33,0-.67,0-1,1.86-3.33.97-8.88,1-13,0-.67,0-1.33,0-2,1.81-1.98.98-6.18,1-9,0-1.33,0-2.67,0-4,1.78-1.66.98-5.5,1-8,0-1-.01-2,0-3,1.06-4.25,1.68-10.1,1.99-14.51,1.27-18.05,2.61-36.41,3.01-54.49.01-.67,0-1.33,0-2,1.86-3.33.97-8.88,1-13,0-.67,0-1.33,0-2,1.81-2.62,1.02-7.56,1-11,0-1.61.04-3.46,0-5,1.78-1.66.98-5.5,1-8,.02-1.67-.01-3.33,0-5,0-1-.02-2,0-3,1.48-.77,1.12-3.47,1-5-.07-.85-.03-1.72-1-2,.06-.04.98-.93,1-1,1.65-1.04,1-3.8,1.02-5.49.04-5.14-.14-10.43-.02-15.51,0-.19,1.02-1.15,1-2-.06-2.91.09-5.06-2.12-7.4-2.07-2.19-3.09-1.16-3.88-1.6-1.9-1.07-3-2.4-4-3-2.35-3.69-.4-7.42,0-11,.32-2.83-1.39-4.58,2-8,.38-.38,1.42-.62,2-1,9.27,1.03,8.14-7.86,8-14-.02-1,.01-2,0-3,2.2-1.33.96-3.19,1-4,.02-.33-.02-.67,0-1ZM720.04,240l-.02.1s-.01-.06-.02-.09c.01,0,.02,0,.04,0ZM708,347c.19,1.12.11,3.62-.14,6.76.09-2.27.14-4.53.14-6.76ZM706.99,177.01v.04s0,0,0,0v-.05ZM221,344c.11-.63.57-1.06,1.1-1.35-.3.38-.66.83-1.1,1.35ZM229,432.47v-.47c.03.15.02.31,0,.47ZM240,302.99s.04-.06.06-.1c0,.03.02.05.03.07l-.09.02ZM243,328.06c.31-.06.64-.09,1-.06-.34.03-.68.05-1,.06ZM260.25,457.78c-.19-.11-.39-.39-.62-.79.33.32.67.63,1.02.94-.14-.03-.27-.08-.4-.15ZM279,443c.05-.42.18-.85.34-1.29-.1.4-.21.83-.34,1.29ZM286.73,411.05c.06-.02.14-.04.27-.05,0,.02-.12.03-.27.05ZM296,262c.3-.06.69,0,1,0h-1ZM304.02,372.9c-.05-.42-.13-.81-.02-.9.24.63.25.93.02.9ZM305.25,316.14c-.08-.05-.17-.09-.25-.14.1.04.18.1.27.14,0,0-.01,0-.02,0ZM313.01,344.99v-.14s.03.05.05.07l-.05.07ZM334,446.17c.08-.03.16-.06.24-.09,0,.21.02.43.03.67-.13-.24-.24-.44-.28-.57ZM340.13,710.34c-.03-.1-.07-.19-.11-.29.01-.02.03-.03.04-.05.08,0,.15,0,.23,0-.06.1-.11.21-.16.33ZM346,639c.43.05.89.15,1.35.27-.44-.07-.89-.16-1.35-.27ZM348,312.7v-.7c.05.21.01.46,0,.7ZM348.89,770.66c.03-.19.04-.4.04-.65.02,0,.04,0,.06,0,.05.31,0,.51-.11.65ZM349.93,856.22c.08.77.14,2.26.18,4.47-.15-1.48-.23-2.97-.18-4.47ZM351.76,802.63c.1.1.19.21.24.37-.09-.13-.16-.25-.24-.37ZM351.57,801.06c.11-.04.25-.07.43-.06-.08.07-.24.07-.43.06ZM365.83,797.08s-.01-.02-.02-.04l.18-.04-.16.08ZM366.17,428.47c-.12-.46.17-.51.62-.39-.2.13-.41.26-.62.39ZM367.95,600.02s0,0,0,0c.01,0,.03,0,.04,0h-.05ZM370,273h.48c-.16.02-.33.04-.48,0ZM371.98,839.91s0,.06,0,.08l-.03-.08s.01,0,.02,0ZM371.83,1003.65c0-.17.04-.38.17-.65,0,.22-.06.44-.17.65ZM377.52,567c.17-.02.33-.05.48,0h-.48ZM380,870c.33.03.67-.04,1,0h-1ZM383.55,744c.15-.02.31-.03.45,0h-.45ZM391,1131h.5c-.18.03-.36.06-.5,0ZM393.02,654.37c.09-.19.25-.32.51-.36,0,.05.02.11.03.16-.18.06-.36.14-.54.21ZM401.64,369.24c.04.86-.12,1.77-.64,2.76.2-.95.42-1.85.64-2.76ZM399,372h1c-.3.04-.7.04-1,0ZM400,936c.01-.22.06-.38.12-.49l-.12.49ZM401,919l.97-.22c.18.01.38.05.59.1-.62.02-1.16.06-1.56.12ZM402.72,1172.03c.09,0,.18-.01.28-.02v.28c-.09-.08-.18-.17-.28-.26ZM407.88,846.1s0,0,0-.01l.12-.08-.12.09ZM408.08,1062.7s-.03,0-.05,0c.03-.04.06-.08.09-.12-.01.04-.03.08-.04.12ZM408.51,1172.91c-.1-.07-.2-.15-.31-.22,0,0,0-.01.01-.02.11.07.22.15.33.23-.01,0-.03,0-.04,0ZM413.3,1142.04c.17-.03.4-.04.7-.04-.26.01-.49.02-.7.04ZM416.45,914c.19-.02.38-.04.55,0h-.55ZM417.16,428.38c.1-.24.23-.43.45-.45.76-.07,1.44.09,2.1.27-.79.09-1.65.15-2.56.18ZM420.7,383.11s.01-.08.01-.12c.09,0,.18.02.28.02l-.29.1ZM421,1144.22c.2-.06.39-.09.56-.11.04,0,.12.11.23.28-.27-.06-.54-.12-.8-.17ZM424.72,412.07c-.25,0-.5-.02-.72-.07.27.02.51.04.72.07ZM423.92,415.89s.07.08.08.11c-.04-.05-.1-.09-.15-.14.02,0,.04.02.06.03ZM423.36,1155.05c.13-.05.33-.08.64-.05-.24.02-.45.04-.64.05ZM425.03,1066.76c-.52-.09-1.04-.18-1.58-.24.23-.06.46-.13.68-.21.3.01.6.03.89.04,0,.13,0,.26,0,.4ZM426.98,382.07s-.02-.02-.02-.03l.04-.05s0,.05-.01.07ZM430.41,643.28c.43-.19.85-.35,1.27-.49-.09.43-.3.73-.67.72-.22-.09-.42-.17-.6-.23ZM431.96,1067.4c-.26-.06-.52-.12-.8-.16-.04-.08-.07-.15-.14-.24h.97c-.02.14-.02.27-.03.4ZM432.01,1117.99l.04-.02s0,0,0,0c-.01,0-.03,0-.04,0ZM434.99,353.99s-.02-.08,0-.15c.17.08.32.16.47.25-.2,0-.37,0-.48-.09ZM436.88,1007.94s0-.02,0-.03l.11.08s-.07-.03-.12-.05ZM444.01,546c.04-.08.06-.16.1-.23.02.01.04.02.06.04l-.16.2ZM449.95,375.71c-.32-.53-.63-1.09-.95-1.71.34.61.65,1.17.95,1.71ZM449.66,567.84c.17.05.32.1.34.16-.29.03-.39-.03-.34-.16ZM455.99,749.99v-.04s0,0,0,0v.05ZM458,392c.03,1.37.02,2.7-.03,4.02-.03-1.35-.04-2.69.03-4.02ZM458,619.5v-.5c.06.14.03.32,0,.5ZM462.97,402.33c-.32-1.87-.28-3.35-.15-4.72.22,1.73.41,3.46.58,5.16-.22-.1-.39-.23-.43-.44ZM471.01,409.86s.09.09.13.13c-.04,0-.09,0-.13-.01v-.12ZM471,1086c.19.06.37.11.56.16.12.05.24.11.36.19-.29-.11-.6-.22-.91-.35ZM476.65,1127.06s-.02,0-.04,0c.15-.14.3-.28.44-.43,0,.02,0,.04,0,.06-.14.12-.27.26-.41.37ZM479.5,596.01c0-.06,0-.12,0-.17,0,0,0,0,0,0,0,.06,0,.11,0,.17ZM480.51,1063.95s-.06,0-.09,0l1.46-.2.03.06c-.47.05-.94.1-1.41.15ZM484.68,1042.92c-.11,0-.22,0-.33-.01-.02-.03-.04-.06-.06-.09.15.02.3.03.44.04-.02.03-.04.05-.06.07ZM485,690v-.56c.02.2.05.4,0,.56ZM494.99,674.5c.04-.07.06-.13.09-.2.12-.24.25-.37.42-.3.05.04.09.09.13.13-.22.11-.44.26-.67.44.01-.03.02-.05.03-.08ZM493,1127h1c-.33.02-.67-.02-1,0ZM494,1059c.44-.47,1.04-.78,1.71-1.02-.56.35-1.12.69-1.71,1.02ZM495.44,1055.09c.17-.11.33-.21.5-.33.06.12.1.22.08.24-.05.04-.27.06-.58.09ZM496.6,528.08c.14-.02.28-.04.4-.08-.11.07-.25.09-.4.08ZM498,509.49v-.49c.04.15.02.32,0,.49ZM509.82,916.61c.1,0,.19.03.29.05.26.12.55.24.89.35-.44-.14-.82-.27-1.18-.39ZM514.45,425.92c.17.02.35.05.55.08-.18,0-.36-.03-.55-.08ZM517.49,1160.1c.05-.01.11-.03.15-.04.03,0,.05,0,.08,0l-.24.05ZM519.27,1166.87c.24.04.47.08.73.13-.08.07-.35,0-.73-.13ZM520.26,1007.09l-.25-.08c.1.01.17.02.26.03,0,.02,0,.03,0,.05ZM521,382.99l.1-.06s0,.02,0,.03c-.04.01-.07.02-.11.04ZM521.19,583.37c0-.07.01-.13.02-.2.18.02.36,0,.54.02-.19.08-.38.15-.56.18ZM522,823.49v-.49c.04.15.02.32,0,.49ZM532.89,557.02c.04-.49.06-.97.11-1.02-.02.46-.05.8-.11,1.02ZM535,810c.21.28.32.5.32.68-.2-.26-.35-.51-.32-.68ZM536.01,432.99l.09-.02s0,.03,0,.04l-.09-.02ZM536.83,528.97c.08,0,.14,0,.16.03.16.2.26.38.33.53-.13-.21-.3-.39-.5-.55ZM537.4,852.55s0-.13,0-.26c.01.14.03.28.05.42-.02-.05-.04-.1-.05-.15ZM541.99,397l-.02-.03s.02-.02.04-.03c0,.02-.01.04-.02.06ZM551.07,531.43s-.02,0-.02.01c-.26-.07-.56-.19-.91-.38.02-.21.04-.41.05-.6.28.39.58.7.89.96ZM550.37,465.35c.01.16-.1.37-.37.65-.01-.12.16-.37.37-.65ZM548.99,879.01l-.28.07s-.03-.03-.04-.05c.12,0,.23,0,.32-.02ZM545.31,803.7c.14.12-.3.21-1.31.3.57-.11,1-.21,1.31-.3ZM544.44,1203.63s-.02-.02-.03-.03c.03,0,.06.01.09.02-.02,0-.04,0-.05,0ZM543.46,1137.29c2.57-.14,5.13-.3,7.68-.47-2.28.42-4.9.52-7.68.47ZM555.08,574c.3-.01.6-.01.92,0-.35.03-.64.02-.92,0ZM562,577l1.37,5.48c-.23-.5-.68-2.32-1.37-5.48ZM563.47,582.63l-.47-5.63c.49,3.79.64,5.67.47,5.63ZM567,638c.02-.33-.05-.68,0-1v1ZM568,1086c-.08-.07-.04-.29,0-.51v.51ZM569.81,656.03c-.15-.35-.42-.7-.81-1.03.01.09.54.23.83.51-.01.18-.01.35-.02.53ZM572,590c-.12-.46-.1-.73.05-.83-.02.24-.03.51-.05.83ZM573.26,589.71s-.03-.03-.04-.07c.06.04.12.09.19.14-.05-.02-.1-.04-.14-.07ZM590.77,379.9c-.22-.11-.43-.2-.64-.28.23-.1.46-.2.68-.3.01.08.04.15.06.23-.04.11-.07.23-.11.34ZM596,888c-.37-.93-.12-1.36.3-1.62-.06.44-.15.97-.3,1.62ZM596.88,609.74c.04.06.09.14.12.26-.04,0-.08-.12-.12-.26ZM597,587c.15-.04.31-.02.47,0h-.47ZM599.01,877s.02-.04.03-.05c0,.01.02.03.03.04l-.05.02ZM606.37,550.22s.02.01.03.02c-.08.06-.15.13-.23.2-.01-.03-.03-.07-.04-.1.08-.04.16-.07.24-.11ZM602.83,1201.79c1.39-.19,2.87-.42,4.46-.68.13-.02.25-.04.36-.05-1.61.3-3.21.54-4.82.73ZM610.95,948.39s-.04.01-.06.02l.1-.4c-.02.14-.03.26-.04.39ZM615.14,1120.86c-.04-.29-.08-.58-.14-.86.04.31.09.59.14.86,0,0,0,0,0,0ZM620,503c-.11-.05-.2-.11-.31-.17.14.05.24.1.31.17ZM619,577c.27.03.5.07.71.11-.21-.01-.43-.04-.71-.11ZM620.21,727.11l-.21-.1.24.02s-.02.05-.03.08ZM621,937c0-.07.07-.2.16-.35-.02.11-.06.23-.16.35ZM621.27,705.1c-.3.06-.71.04-1.27-.1.48,0,.92,0,1.33.01-.02.03-.04.06-.06.09ZM624.46,532.99c.29.43.51.87.54,1.01l-.13-.66c.1.18.15.38.13.66-.18-.4-.36-.72-.54-1.01ZM628.19,918.13c.13,0,.26,0,.38,0,.1,0,.16.07.22.18-.19-.06-.39-.11-.6-.17ZM630,883c-.02-.18-.02-.36-.02-.54.03.17.05.35.02.54ZM631.4,490.15c.1-.09.3-.14.6-.15l-.6.15ZM636,644c.11-.08.3-.04.5,0h-.5ZM638.87,919.86c.43.02.81.07,1.13.14l-1.13-.14ZM642.32,580.35l.68.65c-.45-.27-.67-.49-.68-.65ZM643.23,437.45c-.1-.16-.19-.32-.23-.45.12.17.18.32.23.45ZM643.12,580.02c.24-.02.52-.03.88-.02-.25.07-.56.05-.88.02ZM645.01,589.99c-.05-.09-.09-.16-.11-.24.11.07.22.14.32.21-.07.01-.14.01-.21.03ZM647.66,601.65c.07-.17.18-.38.34-.65-.03.18-.17.41-.34.65ZM652.45,639.45l-.45-.45c.16.08.3.26.45.45ZM652.15,785.01c.28-.02.57-.03.85,0-.37.03-.64.03-.85,0ZM652.41,639h.59c-.19.04-.39.02-.59,0ZM655.02,1087.07s0-.04-.01-.07l.03.06s-.01,0-.02.01ZM655,882.22v-.21s0,0,0,0l.07.2s-.05,0-.07.01ZM659.22,811.01s0,.01,0,.02c0,0-.01-.01-.02-.02h.03ZM658,581c.13-.03.27-.02.41,0h-.41ZM659,1002.99s.01-.02.02-.03c.13.03.27.06.4.09-.14-.01-.28-.03-.42-.06ZM660,564h.43c-.14.02-.29.03-.43,0ZM661,421c-.03-.13-.02-.27,0-.41v.41ZM665,441c.15-.29.36-.5.6-.66-.23.24-.44.46-.6.66ZM667,851h.45c-.15.02-.3.03-.45,0ZM667.91,1095.22s-.03-.02-.05-.03l.14-.18c-.03.06-.06.14-.09.21ZM669.4,858.67c.1-.11.22-.12.35,0,.08.11.15.21.25.33-.12,0-.34-.15-.6-.33ZM673.97,1121.2v-.06c.1-.08.19-.15.28-.22.05,0,.1-.01.15-.02-.15.09-.3.19-.44.29ZM675.5,806c.18-.03.36-.06.5,0h-.5ZM683.13,586.08l-.12-.08s.08.04.13.07c0,0,0,0,0,.01ZM687.02,560.31c.03-.08.05-.16.09-.22.09-.13.27-.18.47-.19-.18.12-.36.25-.56.41ZM697.96,264.91c0-.05.02-.11.03-.16,0,.08,0,.17,0,.25l-.03-.08ZM699.93,662.08s-.02-.04-.03-.05c.03,0,.06,0,.1-.01l-.07.07ZM709,531l-1,1c.03-.06.93-.98,1-1,.21-.07.71-.03,1,0h-1ZM724.49,812.32l-.48-.32c.17.12.33.22.48.31,0,0,0,0,0,0ZM727.96,792.15s0,0,0-.01c.01-.05.03-.09.04-.14-.02.06-.02.1-.04.15ZM731.01,845.09s0-.06,0-.08l.02.07s0,.01-.01.01ZM739.99,737.51l.47.12c.01.15.03.29.03.44-.15-.18-.31-.37-.5-.56ZM741.65,628.76c.11.07.23.14.35.24-.15-.03-.26-.12-.35-.24ZM743.74,614.91c.04-.1.09-.2.13-.31.07.18.06.29-.13.31ZM744,571c.09-.05.21-.06.36-.06-.11.02-.22.04-.36.06ZM744,446c.18-.05.38-.02.59,0h-.59ZM747,573c.18-.08.32-.16.43-.24.13-.06.26-.11.4-.16-.28.14-.55.27-.83.4ZM758,507c0,.14-.01.25-.02.38-.02-.14-.03-.27.02-.38Z"/>
  <path d="M681,1161c-1.19.27-2.57.92-3,1-2.7.48-6.17.53-9,1-.63.1-1.37-.1-2,0-1.14.19-5.27,1.29-3.99,1.99.99.06,2-.03,2.99.01,1.54.07,3.52.17,5,0,2.35-.26,5.58-1.34,8-2,1.38-.38,2.36-.35,4-1,1.13-.45,2.8-.2,3-1.99-2.1-.79-3.72.7-5,.99Z"/>
</svg>