<?xml version="1.0" encoding="UTF-8"?>
<svg id="Layer_1" data-name="Layer 1" xmlns="http://www.w3.org/2000/svg" viewBox="0 0 635.95 438.01">
  <defs>
    <style>
      .cls-1 {
        fill: #7c7c7c;
      }
    </style>
  </defs>
  <path class="cls-1" d="M626.53,307.38l-23.07-12.3c4.98-10.12,7.42-21.84,5.09-33.04-2.12-10.16-8.83-16.3-17.83-20.41l-16.53-7.55c6.34-12.3,8.73-25.89,4.8-38.77-3.11-10.2-9.93-15.91-19.71-19.79L150.16,13.52c-2.46-.97-3.85-1.35-6.06-2.24L117.59.67c-2.95-1.18-6.45-.62-9.94.24l108.85,46.54,35.59,15.48c-4.34,2.34-8.02-.39-12.01-2.08L102.76,2.71c-1.17-.49-2.13.11-2.64.18-.56.08-1.17,1.42-.43,1.74l70.05,30.54,26.07,11.12,41.8,18.73c-.32.54-.73.99-1.16,1.38l-7.94-2.36L97.22,7.32c-1.09-.47-1.7-.29-2.28.09-.68.45-1.04,1.43.33,2.03l196.81,86,15.02,7.02-.26,2.08-75.67-32.49L93.32,11.49c-2.53.63-4.64.37-7.05-.72l-13.14-5.95c-4.45-2.02-9.08-2.1-12.98-.48l41.88,19.12,15.05,6.36,73.71,35.85c17.24,8.38,34.27,15.32,50.55,25.13-7.06,1.44-10.97-4.56-16.58-5.67-5.24-1.05-9.41-3.17-14.01-5.43l-28.93-14.28L88.17,20.6c-9.62-4.6-18.77-7.99-27.77-13.75-2.53-1.61-6.22-2.04-7.66.93l83.08,39.82,77.82,37.69c5.38,2.6,10.59,4.51,14.67,9.2-3.26-.1-5.66-.67-8.24-1.92L50.83,10.33c-1.14-.55-2-.05-2.48.17-.59.28-1.18,1.66-.02,2.22l93.89,45.74,139.7,68.44c3.05,1.49,4.85,2.73,7.61,4.28l16.6,9.32-.07,1.61-9.9-3.95-87.12-42.93-73.71-36.37-6.36-3.18L45.59,14.23c-1.99,2.17-2.93,4.21-3.33,6.42l-.81,4.45c-1.26,6.88,1.69,14.05,6.74,19.32,1.57,1.64,3.56,1.14,4.73,1.73l.3,1.33c-6.99-.8-13.71-1.08-20.89,3.23l28.09,16.43,35.14,21.02,46.52,28.54,10.62,7.37,18.42,11.14,42.53,26.91c-9.87-1.65-16.82-7.05-24.87-11.98L31.62,53.87c-1.38-.85-2.04-1.07-2.9-.69-1.1.49-1.4,2.1-.49,2.66l50.13,30.51,139.72,86.35c11.64,7.2,22.11,14.1,33.4,21.44l21.08,13.72-1.26,1.65-49.37-30.09L25.53,57.03c-7.5,9.63-6.07,22.96,2.28,31.03,1,.97,1.53,1.74,1.74,2.75l-2.33-.24c-4.44-.45-9.35.95-14.13,2.77l23.2,17.08,74.54,56.1,24.09,18.71,64.67,47.2,56,40.21c2.46,1.76,4.29,4.65,6.52,6,5.09,3.09,10.32,4.61,14.95,8.83l98.63,72.28,2.8-.89c.43-.14.42,1.53.29,1.91-.42.43-1,1.21-1.78,1.15-.8-.06-1.7-.1-2.59.23-.67.25-1.03,1.31-.79,2.12-.44.03-1.16.48-.94,1.11-2.88.14-4.85-.94-7.14-2.69l-50.85-39.01-66.92-51.39-28.2-21.55-7.87-5.76-34.95-24.45-30.21-21.96L9.89,95.74c-.59-.45-2.24,1.3-1.98,1.69.39.59.43.95,1.51,1.76l137.14,103.71,46.57,36.02c8.6,6.65,17.2,12.44,24.71,20.79-8.33-3.66-14.36-8.88-21.04-13.97l-68.45-52.13L5.53,99.47c-8.94,10.87-6.69,26.11,4.31,33.97,2.6,1.86,3.97,4.32,6.38,6.42,1.59,1.39,5.09,1.63,6.36,4.16,1.67,3.34,5.94,4.3,8.13,6.54,2.89,2.97,4.31,5.07,8.03,7.2,4,2.29,10.53,9.19,16.39,13.96l9.25,7.54c5.45,4.44,11.79,11.26,16.14,13.88,2.83,1.7,5.86,4.91,8.45,7.08l10.38,8.69c2.85,2.39,5.15,4.38,8.06,6.96l7.77,6.87,19.06,15.84,10.05,8.16,107.88,90.72,98.76,82.98c2.8,2.35,4.18,5.12,7.91,4.89.65,1.07,1.4,2.07,2.24,2.65,6.18,9.29,17.09,12.38,27.69,8.21,5.57-2.19,11.33-3.46,16.17-7.14,9.11-6.92,15.64-15.83,20.54-26.93l14.66,10.88c22.58,12.34,48.09-4.7,58.25-28.22l15.9,10.13c16.27,10.37,45.21-5.7,51.96-27.17,7.72,3.72,12.79,9.8,20.79,11.63,5.92,1.35,14.99.31,20.65-2.71,28.69-15.32,36.62-56.16,18.87-69.28ZM526.89,320.45c.17.19.26.38.29.54l-.29-.54Z"/>
</svg>