<?xml version="1.0" encoding="UTF-8"?>
<svg id="Camada_1" xmlns="http://www.w3.org/2000/svg" version="1.1" viewBox="0 0 1080 1350">
  <!-- Generator: Adobe Illustrator 29.5.1, SVG Export Plug-In . SVG Version: 2.1.0 Build 141)  -->
  <defs>
    <style>
      .st0 {
        fill: #924e2d;
      }
    </style>
  </defs>
  <path class="st0" d="M768.54,406.95c-15.59-7.19-32.57-12.13-48.76-18.99-1.47-.62-1.34-3.16-3.48-3.82-3.56-1.1-5.23,1.89-6.63,1.69-2.81-.39-7.47-7.24-9.38-7.74-2.66-.69-3.3,2.31-5,2.76-3.31.88-3.86-2.2-5.06-2.8-1.51-.75-3.35-.5-4.89-1.43-2.98-1.8-4.75-8.2-5.98-8.58-1.71-.53-3.05.83-3.95.87-.52.02-.33-1.86-.84-1.84-1.97.05-9.31.59-11.07.94-2.59.51-2.76,3.09-5.74,2.83-5.56-.49-7.68-8.58-11.86-11.25-5.55-3.56-4.34,2.59-7.43,2.14-1.54-.22-4.17-5.82-10.04-5.6-3.71.14-5.09,4.18-7.17,4.74-3.23.86-5.6-2.9-6.26.65-.87,4.66-5.64-1.14-6.71-1.38-1.49-.34-2.79.92-3.75.9-.61,0-.58-2.02-1.08-2.09-2.12-.28-3.11,1.7-4.18,1.88-1.28.22-2.93-2.43-5.7-1.87-.64.13-.61,2.03-1.14,2.1-2.7.34-4.77-3.3-6.81-2.91-1.45.28-2.45,3.3-4.13,2.86-.86-.22-1.21-2.73-2.75-3.36-2.3-.95-3.6.04-5.25-.15-.96-.11-1.88-1.46-3-1.47-.75-.01-9.19,3.48-14.18,3.6-12.7.31-26.07-.57-38.83-.71-5.44-.06-4.11,3.46-7.21-2.75-.54-1.09-.1-2.78-.29-3.17,10.22-3.19,10.4-7.15,8.56-17.06-1.57-2.25-19.05.1-24.06-1.72-.16-.07-.33-.15-.51-.22-5.72-2.28-2.76.67-5.89,1.57-1.4.4-4.87.95-5.96.27-1.97-1.23-4.84-16.04-8.15-19.83-.45-.52-1.57-1.8-2-2,4.25-4.95-.99-3.81-5-3-13.87,2.81-8.35,5.61-10.24,16.26-.88,4.99-6.62,10.16-11.76,8.74-6.7-5.88.34-12.77-1.01-13.99-1.85-1.69-6.3,1.74-7.99,2.99-1.05.78-1.36,1.42-2,2-.8.71-1.39,1.45-2,2-1.29,1.17-2,2.97-3.61,3.89-4.69,2.67-9.23,1.41-11.39,9.11-.35.24-.99,1.29-2,2-2.11,1.49-3.35,2.75-5,4-.95.72-2.06,1.27-3,2-2.13,1.67-5.51,3.26-7,6-.69.15-1.5,1.47-3.34,1.08-.51-.11-2.71-5.13-4.66-3.08-1.64,1.74,2.56,4.78,3.99,4.99v10s-6-2-6-2c-.19-2.94.76-5.19,1.01-8-1.61.8-5.73-1.17-5.97-1-.13.09-.54,2.11-1.03,2.99-3.4,6.08-3.21,7.01-11,7-2.74-6.43-1.49-10.86-8-5-3.1,2.79-4.74,7.16-9.3,6.04-.79-.19-8.35-11.22-9.7-13.04-2.11-2.84-7.06-12.8-11.47-12.04-1.95,5.17-5.86,9.41-8.53,14.04-1.78.77-3.45,1.86-5,3-1.54-7.17-5.82-2.76-5.98,1.55-.04,1.05.92,1.27.98,1.45.43,1.29,2.26,2.94-.65,3.84-3.45,1.07-8.96-.95-13.61.39-1.85.53-2.88,1.87-4.53,2.47-2.54.93-6.32.46-8.21,3.29-1.05,1.57.62,7.93,3,7,.05,1.33-.02,2.67,0,4l-7-1c-2.22-1.61-9.06-8.64-11-9-1.37-2.29-6.75.83-7.34,2.23-2.28,5.39,1.29,17.53-1.95,21.49-3.07,3.76-16.23,5.15-20.71,3.28-.28-.12-2.4-1.59-3-2-.77-.53-.87-2.71-2.98-1.99-2.36,8.85-15.71,4.86-12.54,16.03,1.18,4.17,6.21,9.11,7.11,12.97.6,2.58-1.82,6.52,1.41,8,.27.12.71-.12,1,0,1.17,2.66-1.85,3.04-1.98,3.69-.96,4.85.76,8.62-5.02,12.31-8.7,4.13-15.86,13.95-22.7,18.05-2.2,1.32-5.31.7-7.83,2.92-2.17,1.91-3.05,5.99-4.46,8.04-6.03-.53-6.4,2.16-8,7-52.26,48.2-87.28,120.21-85,195,.21,6.95,1.2,13.31,2,20,25.25,210.12,279.88,300.39,464.54,294.04,167.75-5.77,382.8-95.59,411.17-281.83,22.43-147.26-87.29-251.07-209.17-307.26Z"/>
</svg>